<svg width="92" height="31" viewBox="0 0 92 31" fill="none" xmlns="http://www.w3.org/2000/svg">
<path fill-rule="evenodd" clip-rule="evenodd" d="M12.3735 8.62507C11.3929 7.34574 9.91396 6.4541 7.71773 6.4541C3.26155 6.4541 0 10.1117 0 14.7742C0 19.4411 3.26155 23.0878 7.71773 23.0878C9.8579 23.0878 11.3211 22.2504 12.3074 21.0052V22.0387C12.3074 24.6475 10.2658 25.8196 8.11551 25.8196C6.30824 25.8196 4.6813 25.3709 3.17196 24.406L0.901755 28.3374C2.88848 29.721 5.7167 30.4255 8.48872 30.4255C13.9365 30.4255 17.5175 27.1942 17.5175 21.7919V6.91592H13.3706L12.3735 8.62507ZM8.97839 18.3023C6.90209 18.3023 5.48133 16.7726 5.48133 14.7742C5.48133 12.7693 6.90209 11.2606 8.97839 11.2606C10.9807 11.2583 12.3735 12.7472 12.3735 14.7742C12.3735 16.8114 10.9807 18.3023 8.97839 18.3023Z" fill="black"/>
<path fill-rule="evenodd" clip-rule="evenodd" d="M28.1129 6.4541C23.0834 6.4541 19.3606 10.1826 19.3606 15.2207C19.3606 20.2488 23.0834 23.9716 28.1129 23.9716C33.1597 23.9716 36.8781 20.2488 36.8781 15.2207C36.8781 10.1826 33.1597 6.4541 28.1129 6.4541ZM28.1129 19.0285C26.1072 19.0285 24.6267 17.4573 24.6267 15.2185C24.6267 12.9774 26.1147 11.4028 28.1129 11.4028C30.137 11.4028 31.6143 12.9774 31.6143 15.2185C31.6143 17.4518 30.137 19.0285 28.1129 19.0285Z" fill="black"/>
<path fill-rule="evenodd" clip-rule="evenodd" d="M47.4769 6.4541C42.4468 6.4541 38.7209 10.1826 38.7209 15.2207C38.7209 20.2488 42.4468 23.9716 47.4769 23.9716C52.5254 23.9716 56.2385 20.2488 56.2385 15.2207C56.2385 10.1826 52.5189 6.4541 47.4769 6.4541ZM47.4769 19.0285C45.4707 19.0285 43.9941 17.4573 43.9941 15.2207C43.9941 12.9774 45.4707 11.4028 47.4769 11.4028C49.5029 11.4028 50.9729 12.9774 50.9729 15.2185C50.9729 17.4573 49.5029 19.0285 47.4769 19.0285Z" fill="black"/>
<path fill-rule="evenodd" clip-rule="evenodd" d="M69.4186 8.91871C68.421 7.74518 66.9612 6.9202 64.8506 6.9202C60.4208 6.9202 57.1604 10.6768 57.1604 15.4304C57.1604 20.2159 60.4208 23.9714 64.8407 23.9714C67.0769 23.9714 68.5912 23.0713 69.5829 21.7966L70.6106 23.5459H74.6779V0H69.4186V8.91871ZM66.1027 19.1599C63.9943 19.1599 62.5812 17.5609 62.5812 15.4534C62.5812 13.335 63.9943 11.7372 66.1027 11.7372C68.182 11.7372 69.6388 13.3001 69.6388 15.4513C69.6388 17.5957 68.1754 19.1599 66.1027 19.1599Z" fill="black"/>
<path fill-rule="evenodd" clip-rule="evenodd" d="M86.0488 13.0734L84.8727 12.8876C83.3131 12.6298 82.2996 12.4604 82.2996 11.7479C82.2996 11.1393 82.8231 10.7271 84.1579 10.7271C85.5413 10.7482 87.2224 11.1617 88.6671 11.713L90.7986 7.86262C88.1941 6.82606 86.544 6.4541 83.9612 6.4541C79.6179 6.4541 77.0614 8.47663 77.0614 12.0246C77.0614 15.0078 78.8471 16.6751 82.6951 17.2647L83.6195 17.4001C85.4253 17.6939 86.1412 17.9449 86.1412 18.5905C86.1412 19.3065 85.4918 19.6753 83.912 19.6753C81.8823 19.6753 80.1778 19.1889 78.6751 18.3416L76.521 22.2267C78.3441 23.4662 81.1538 23.9716 83.884 23.9716C88.5359 23.9716 91.2726 21.7842 91.2726 18.1321C91.2726 15.3328 89.4733 13.6194 86.0488 13.0734Z" fill="black"/>
</svg>
