<?xml version="1.0" encoding="iso-8859-1"?>
<!-- Generator: Adobe Illustrator 19.0.0, SVG Export Plug-In . SVG Version: 6.00 Build 0)  -->
<svg version="1.1" id="Capa_1" xmlns="http://www.w3.org/2000/svg" xmlns:xlink="http://www.w3.org/1999/xlink" x="0px" y="0px"
	 viewBox="0 0 512 512" style="enable-background:new 0 0 512 512; fill: #fff; " xml:space="preserve">
<g>
	<g>
		<path d="M512,297c0-77.852-41.831-149.211-109.481-187.36c-9.523-16.888-21.407-32.584-35.491-46.668
			C326.42,22.364,272.429,0,215,0C157.571,0,103.58,22.364,62.972,62.972C22.364,103.58,0,157.571,0,215
			c0,34.945,8.545,69.475,24.757,100.216L6.752,423.248l104.769-17.462C150.104,471.514,220.408,512,297,512
			c34.945,0,69.475-8.545,100.216-24.757l108.032,18.005l-18.005-108.032C503.455,366.475,512,331.945,512,297z M124.74,376.512
			l-4.598-2.576l-76.894,12.816l12.816-76.894l-2.576-4.598C38.122,277.828,30,246.616,30,215c0-102.009,82.991-185,185-185
			s185,82.991,185,185s-82.991,185-185,185C183.384,400,152.172,391.878,124.74,376.512z M468.752,468.752l-76.894-12.816
			l-4.598,2.576C359.828,473.878,328.616,482,297,482c-52.027,0-100.669-21.727-135.191-58.696C179.124,427.717,197.004,430,215,430
			c57.429,0,111.42-22.364,152.028-62.972C407.636,326.42,430,272.429,430,215c0-18.139-2.237-35.934-6.57-53.074
			C460.322,196.441,482,245.033,482,297c0,31.616-8.122,62.828-23.488,90.26l-2.575,4.598L468.752,468.752z"/>
	</g>
</g>
<g>
	<g>
		<rect x="105" y="140" width="220" height="30"/>
	</g>
</g>
<g>
	<g>
		<rect x="105" y="200" width="220" height="30"/>
	</g>
</g>
<g>
	<g>
		<rect x="105" y="260" width="160" height="30"/>
	</g>
</g>
<g>
</g>
<g>
</g>
<g>
</g>
<g>
</g>
<g>
</g>
<g>
</g>
<g>
</g>
<g>
</g>
<g>
</g>
<g>
</g>
<g>
</g>
<g>
</g>
<g>
</g>
<g>
</g>
<g>
</g>
</svg>
