<?xml version="1.0" encoding="iso-8859-1"?>
<!-- Generator: Adobe Illustrator 19.0.0, SVG Export Plug-In . SVG Version: 6.00 Build 0)  -->
<svg version="1.1" id="Capa_1" xmlns="http://www.w3.org/2000/svg" xmlns:xlink="http://www.w3.org/1999/xlink" x="0px" y="0px"
	 viewBox="0 0 494.08 494.08" style="enable-background:new 0 0 494.08 494.08; fill: #fff; " xml:space="preserve">
<g>
	<g>
		<polygon points="430.08,69.04 430.08,5.04 398.08,5.04 398.08,69.04 334.08,69.04 334.08,101.04 398.08,101.04 398.08,165.04 
			430.08,165.04 430.08,101.04 494.08,101.04 494.08,69.04 		"/>
	</g>
</g>
<g>
	<g>
		<path d="M372.16,361.2c16.62-30.796,25.515-65.167,25.92-100.16c-0.065-55.625-40.945-102.774-96-110.72v-1.28
			c0-61.856-50.144-112-112-112s-112,50.144-112,112c0.407,34.871,9.245,69.125,25.76,99.84C59.651,256.883,21.468,284.476,0,323.92
			l28,16c19.366-35.57,55.59-58.753,96-61.44c14.295,16.479,34.075,27.221,55.68,30.24c4.247,18.475,10.974,36.29,20,52.96
			c-61.145,11.256-109.291,58.579-121.6,119.52l32,7.68c10.478-54.104,55.78-94.561,110.72-98.88
			c16.323,19.202,40.084,30.5,65.28,31.04c25.365-0.404,49.327-11.714,65.76-31.04C424,397.04,452,446.64,462.56,489.04l31.52-7.84
			C481.901,419.979,433.567,372.406,372.16,361.2z M174.08,264.56c0,4.48,0,9.28,0.96,14.08c-40.48-12.96-67.36-74.4-67.36-130.4
			c0-45.906,37.214-83.12,83.12-83.12c45.906,0,83.12,37.214,83.12,83.12c0,0,0,0.96,0,1.28
			C216.704,157.778,174.202,206.751,174.08,264.56z M286.08,393.04v-0.48c-48.96,0-83.04-70.08-83.04-132.96
			c0.018-45.862,37.212-83.025,83.073-83.007c45.836,0.018,82.988,37.171,83.007,83.007C369.12,322.96,335.04,393.04,286.08,393.04z
			"/>
	</g>
</g>
<g>
</g>
<g>
</g>
<g>
</g>
<g>
</g>
<g>
</g>
<g>
</g>
<g>
</g>
<g>
</g>
<g>
</g>
<g>
</g>
<g>
</g>
<g>
</g>
<g>
</g>
<g>
</g>
<g>
</g>
</svg>
