<?xml version="1.0" encoding="iso-8859-1"?>
<!-- Generator: Adobe Illustrator 19.0.0, SVG Export Plug-In . SVG Version: 6.00 Build 0)  -->
<svg version="1.1" id="Capa_1" xmlns="http://www.w3.org/2000/svg" xmlns:xlink="http://www.w3.org/1999/xlink" x="0px" y="0px"
	 viewBox="0 0 464 464" style="enable-background:new 0 0 464 464;" xml:space="preserve">
<g>
	<g>
		<path d="M440,16H88c-13.232,0-24,10.768-24,24v40H24C10.768,80,0,90.768,0,104v320c0,13.232,10.768,24,24,24h304h48
			c13.232,0,24-10.768,24-24v-40h40c13.232,0,24-10.768,24-24V40C464,26.768,453.232,16,440,16z M27.312,432L168,291.312
			l90.344,90.344L308.688,432H27.312z M331.312,432l-56-56L296,355.312L372.688,432H331.312z M384,376v44.688l-82.344-82.344
			c-3.128-3.128-8.184-3.128-11.312,0L264,364.688l-90.344-90.344c-3.128-3.128-8.184-3.128-11.312,0L16,420.688V104
			c0-4.416,3.584-8,8-8h351.656c0.224,0.016,0.52,0.056,0.896,0.112c0.368,0.024,0.712,0.136,1.064,0.216
			c0.728,0.176,1.544,0.464,2.352,0.88C382.336,98.6,384,101.064,384,104V376z M448,360c0,4.416-3.584,8-8,8h-40V104
			c0-1.72-0.2-3.392-0.544-5.008c-0.304-1.528-0.768-2.92-1.32-4.248c-0.016-0.032-0.024-0.064-0.032-0.104
			c-0.56-1.328-1.224-2.528-1.992-3.656c-0.136-0.208-0.264-0.416-0.4-0.624c-0.544-0.744-1.112-1.44-1.728-2.096
			C389.576,83.24,383.192,80,376,80H80V40c0-4.416,3.584-8,8-8h352c4.416,0,8,3.584,8,8V360z"/>
	</g>
</g>
<g>
	<g>
		<path d="M88,112c-30.872,0-56,25.128-56,56s25.128,56,56,56s56-25.128,56-56S118.872,112,88,112z M88,208
			c-22.056,0-40-17.944-40-40c0-22.056,17.944-40,40-40c22.056,0,40,17.944,40,40C128,190.056,110.056,208,88,208z"/>
	</g>
</g>
<g>
</g>
<g>
</g>
<g>
</g>
<g>
</g>
<g>
</g>
<g>
</g>
<g>
</g>
<g>
</g>
<g>
</g>
<g>
</g>
<g>
</g>
<g>
</g>
<g>
</g>
<g>
</g>
<g>
</g>
</svg>
