<?xml version="1.0"?>
<svg xmlns="http://www.w3.org/2000/svg" id="Layer_1" data-name="Layer 1" viewBox="0 0 512 512" width="512" height="512"><title>Remove Ad</title><path d="M182.781,184.119a6,6,0,0,0-6-6H65.954a6,6,0,1,0,0,12H176.781A6,6,0,0,0,182.781,184.119Z"/><path d="M363.816,230.734V154.78a6,6,0,0,0-8.537-5.437l-115.492,53.9c-3.27,1.526-6.591,3-9.938,4.41a111,111,0,1,0-141.006,82.6v15.795a29.305,29.305,0,0,0,29.272,29.271c.715,0,1.43.025,2.145.03v97.531a6,6,0,0,0,6,6A52.6,52.6,0,0,0,178.8,386.337V341.859a288.3,288.3,0,0,1,60.984,20.454l115.491,53.9a6,6,0,0,0,8.537-5.438V334.819a52.531,52.531,0,0,0,0-104.085ZM22.368,184.119a99,99,0,1,1,99,99A99.112,99.112,0,0,1,22.368,184.119Zm78.475,121.93v-12.84a111.023,111.023,0,0,0,65.961-7.822v41.958a298.717,298.717,0,0,0-48.689-4.025A17.291,17.291,0,0,1,100.843,306.049ZM166.8,386.337a40.609,40.609,0,0,1-34.544,40.1V335.693a288.2,288.2,0,0,1,34.544,3.839Zm12-56.758V279.073a111.62,111.62,0,0,0,46.8-56.792c6.5-2.5,12.965-5.231,19.255-8.167l68.555-31.993V383.432l-68.555-31.994A300.6,300.6,0,0,0,178.8,329.579Zm173.012,71.773-26.4-12.32V176.521l26.4-12.32Zm12-78.678V242.879a40.534,40.534,0,0,1,0,79.795Z"/><path d="M464.92,282.78a74.617,74.617,0,0,0-45.461-68.764,6,6,0,1,0-4.7,11.041,62.728,62.728,0,0,1,0,115.433,6,6,0,1,0,4.7,11.041A74.607,74.607,0,0,0,464.92,282.78Z"/><path d="M434.269,180.889a6,6,0,1,0-4.7,11.041,98.731,98.731,0,0,1,0,181.687,6,6,0,1,0,4.7,11.041,110.73,110.73,0,0,0,0-203.769Z"/></svg>
