<?xml version="1.0" encoding="UTF-8" standalone="no"?>
<svg
   xmlns:dc="http://purl.org/dc/elements/1.1/"
   xmlns:cc="http://creativecommons.org/ns#"
   xmlns:rdf="http://www.w3.org/1999/02/22-rdf-syntax-ns#"
   xmlns:svg="http://www.w3.org/2000/svg"
   xmlns="http://www.w3.org/2000/svg"
   viewBox="0 0 682.66931 682.66931"
   height="682.66931"
   width="682.66931"
   xml:space="preserve"
   id="svg2"
   version="1.1"><metadata
     id="metadata8"><rdf:RDF><cc:Work
         rdf:about=""><dc:format>image/svg+xml</dc:format><dc:type
           rdf:resource="http://purl.org/dc/dcmitype/StillImage" /></cc:Work></rdf:RDF></metadata><defs
     id="defs6"><clipPath
       id="clipPath18"
       clipPathUnits="userSpaceOnUse"><path
         id="path16"
         d="M 0,512.002 H 512.002 V 0 H 0 Z" /></clipPath></defs><g
     transform="matrix(1.3333333,0,0,-1.3333333,0,682.66933)"
     id="g10"><g
       id="g12"><g
         clip-path="url(#clipPath18)"
         id="g14"><g
           transform="translate(364,403.94)"
           id="g20"><path
             id="path22"
             style="fill:#3365EA;"
             d="m 0,0 c 17.673,0 32,-14.327 32,-32 0,-17.673 -14.327,-32 -32,-32 -17.673,0 -32,14.327 -32,32 0,17.673 14.327,32 32,32" /></g><g
           transform="translate(506.4775,346.065)"
           id="g24"><path
             id="path26"
             style="fill:#3365EA;"
             d="m 0,0 c -10.68,27.194 -30.264,66.431 -62.915,98.927 -32.534,32.384 -71.356,51.408 -98.193,61.666 -29.464,11.261 -62.946,4.163 -85.295,-18.082 l -78.538,-78.17 c -23.282,-23.171 -29.992,-58.825 -16.699,-88.72 4.122,-9.272 8.605,-18.341 13.395,-27.103 L -500.62,-223.856 c -3.751,-3.751 -5.858,-8.838 -5.858,-14.143 v -88 c 0,-11.046 8.955,-20 20,-20 h 88 c 11.046,0 20,8.954 20,20 v 36 l 36,0.001 c 11.046,0 20,8.954 20,20 v 35.999 h 36 c 11.046,0 20,8.954 20,20 0,11.046 -8.954,20 -20,20 h -56 c -11.045,0 -20,-8.954 -20,-20 v -35.999 l -36,-0.001 c -11.045,0 -20,-8.954 -20,-20 v -36 h -48 v 59.716 l 177.355,177.354 c 6.517,6.516 7.737,16.639 2.958,24.517 -6.931,11.424 -13.297,23.632 -18.922,36.285 -6.6,14.841 -3.238,32.57 8.365,44.119 l 78.537,78.169 c 11.213,11.159 28.011,14.718 42.798,9.068 23.222,-8.876 56.691,-25.214 84.256,-52.652 27.735,-27.604 44.62,-61.567 53.901,-85.197 5.791,-14.748 2.271,-31.503 -8.965,-42.687 l -79.487,-79.114 c -11.575,-11.519 -28.85,-14.887 -44.015,-8.579 -12.507,5.201 -24.62,11.381 -36,18.366 -9.413,5.778 -21.73,2.83 -27.507,-6.584 -5.778,-9.414 -2.831,-21.73 6.583,-27.508 13.151,-8.072 27.136,-15.207 41.561,-21.207 30.142,-12.539 64.526,-5.8 87.595,17.161 l 79.486,79.113 C 4.566,-63.22 11.623,-29.597 0,0" /></g></g></g></g></svg>