<svg id="Слой_1" data-name="Слой 1" xmlns="http://www.w3.org/2000/svg" xmlns:xlink="http://www.w3.org/1999/xlink" viewBox="0 0 156.28 48.29"><defs><style>.cls-1{fill:url(#Новый_образец_градиентной_залив);}.cls-2{fill:#3fa9f5;}</style><linearGradient id="Новый_образец_градиентной_залив" x1="80.03" y1="68.4" x2="165.03" y2="68.4" gradientTransform="matrix(0.62, 0.13, -0.13, 0.63, -28.6, -30.69)" gradientUnits="userSpaceOnUse"><stop offset="0" stop-color="#0072d4"/><stop offset="0.22" stop-color="#0585df"/><stop offset="0.73" stop-color="#11abf6"/><stop offset="1" stop-color="#15baff"/></linearGradient></defs><title>logo</title><path class="cls-1" d="M30.67,35.25,26.86,49a3,3,0,0,0,2.71-.82l7.17-5.13,9.95,12.64c1.92,1.87,3.64,1.46,4.87-1.41L68.42,13.59h0c1.49-3.59-.09-5.44-2.44-5L15.09,19.13c-3.48.73-3.85,2.76-1.46,4.23l11,6.74L56.49,16.18c1.51-.7,2.58.09,1.4.87Z" transform="translate(-12.11 -8.54)"/><path class="cls-2" d="M86.66,47.13c-3.54,0-5.32-1.8-5.32-5.42V32H79V28.34h2.34V23.26h4.24v5.08h5V32h-5V41a2,2,0,0,0,2.27,2.31,5.82,5.82,0,0,0,2.63-.63v3.47A7.64,7.64,0,0,1,86.66,47.13Z" transform="translate(-12.11 -8.54)"/><path class="cls-2" d="M103,52.49a15.64,15.64,0,0,1-8.26-2.21l1.58-3.18a12.24,12.24,0,0,0,6.58,2,6,6,0,0,0,4.34-1.45,5.62,5.62,0,0,0,1.5-4.22V42a7.93,7.93,0,0,1-6.51,3.4A8.23,8.23,0,0,1,96.36,43a8.37,8.37,0,0,1-2.49-6.34,8.36,8.36,0,0,1,8.4-8.68,8.12,8.12,0,0,1,6.48,3.15V28.34H113V43q0,4.62-2.34,7T103,52.49Zm.35-10.71a5.54,5.54,0,0,0,3.84-1.45,4.79,4.79,0,0,0,1.59-3.7A4.73,4.73,0,0,0,107.23,33a5.54,5.54,0,0,0-3.84-1.44,5.26,5.26,0,0,0-3.74,1.42,4.88,4.88,0,0,0-1.51,3.73,4.8,4.8,0,0,0,1.53,3.67A5.2,5.2,0,0,0,103.39,41.78Z" transform="translate(-12.11 -8.54)"/><path class="cls-2" d="M118.27,46.82V28.34h4.23v2.8A6.81,6.81,0,0,1,128.14,28a5.67,5.67,0,0,1,5.49,3.26A7.6,7.6,0,0,1,139.9,28a6.16,6.16,0,0,1,4.76,1.86A7.39,7.39,0,0,1,146.37,35v11.8h-4.23V36.32a5.08,5.08,0,0,0-1-3.36,3.45,3.45,0,0,0-2.77-1.16A3.7,3.7,0,0,0,135.52,33a4.9,4.9,0,0,0-1.08,3.38V46.82H130.2V36.28a5,5,0,0,0-1-3.3,3.37,3.37,0,0,0-2.76-1.18,3.62,3.62,0,0,0-2.87,1.25,5,5,0,0,0-1.09,3.37v10.4Z" transform="translate(-12.11 -8.54)"/><path class="cls-2" d="M160,47.24a9.19,9.19,0,0,1-6.77-2.7,9.36,9.36,0,0,1-2.72-7,9.76,9.76,0,0,1,2.56-6.83,8.4,8.4,0,0,1,6.47-2.8,7.94,7.94,0,0,1,6.53,2.86,10.84,10.84,0,0,1,2.33,7.08,7.25,7.25,0,0,1-.07,1.19H154.74a5.55,5.55,0,0,0,1.78,3.45,5.22,5.22,0,0,0,3.54,1.24,7,7,0,0,0,5-2.2l2.49,2.2A9.34,9.34,0,0,1,160,47.24Zm-5.29-11h9.49a6,6,0,0,0-1.44-3.5,4.14,4.14,0,0,0-3.25-1.36,4.27,4.27,0,0,0-3.22,1.35A6,6,0,0,0,154.7,36.28Z" transform="translate(-12.11 -8.54)"/></svg>