<svg width="146" height="36" viewBox="0 0 146 36" fill="none" xmlns="http://www.w3.org/2000/svg">
<path d="M128.441 35.2632H73.8988C63.2408 35.2632 56.3402 28.599 56.3402 18.2481V17.7519C56.3402 7.42467 63.2408 0.736816 73.8988 0.736816H128.441C139.099 0.736816 146 7.40104 146 17.7519V18.2481C146 28.599 139.099 35.2632 128.441 35.2632ZM73.8988 1.6112C63.737 1.6112 57.191 7.96821 57.191 17.7755V18.2718C57.191 28.1027 63.7607 34.4361 73.9224 34.4361H128.465C138.627 34.4361 145.173 28.079 145.173 18.2718V17.7755C145.173 7.94458 138.603 1.6112 128.441 1.6112H73.8988Z" fill="white"/>
<path d="M49.7328 0.736938L3.72133 0.760572C1.87803 0.760572 0.531006 2.1076 0.531006 3.95089V32.073C0.531006 33.9163 1.87803 35.2633 3.72133 35.2633L49.7328 35.2397C51.5761 35.2397 52.9232 33.8926 52.9232 32.0493V3.92726C52.9232 2.08396 51.5761 0.736938 49.7328 0.736938ZM25.4155 23.1401V26.4958H7.78603V20.6115C10.5982 19.9025 14.6393 18.8863 16.5299 18.3428C20.3346 17.2321 21.2799 16.3104 21.2799 14.4435C21.2799 12.293 19.5075 11.2532 16.6244 11.2532C13.8595 11.2532 11.6144 12.1748 11.7326 15.8378H7.45518C7.21886 11.4895 9.5348 7.85017 16.5062 7.85017C23.1705 7.85017 25.6282 10.6624 25.6282 14.1835C25.6282 16.9012 24.6829 19.1935 20.311 20.5406C17.2388 21.4858 14.1903 22.0766 11.1654 22.6202V23.0692L25.4155 23.1401ZM46.8025 24.5816H43.5649V27.0394H39.8547V24.5816H27.8969V18.8627C33.3795 16.0032 36.9952 10.8514 37.775 8.22829H42.6432C39.6656 13.8054 34.3484 19.1226 31.1108 20.7533V21.4149H39.8547V16.7594H43.5649V21.4149H46.8025V24.5816Z" fill="white"/>
<path d="M64.8634 20.1873H62.4888C62.4888 22.7898 64.8257 23.6757 68.0295 23.6757C71.3088 23.6757 73.7023 22.679 73.7023 20.2242C73.7023 18.3047 72.628 17.2896 69.6126 16.9758C66.013 16.6066 64.8822 16.5513 64.8822 15.4623C64.8822 14.5025 65.8999 14.1149 67.7092 14.1149C69.3676 14.1149 70.8376 14.4102 70.9319 15.7945H73.2123C73.2123 13.2105 70.9884 12.3246 67.8788 12.3246C64.8069 12.3246 62.6018 13.4136 62.6018 15.7761C62.6018 17.7694 63.8645 18.6369 67.1438 18.9138C70.2911 19.1722 71.2711 19.246 71.2711 20.4826C71.2711 21.5901 70.0084 21.8854 68.2934 21.8854C66.5219 21.8854 64.9765 21.5901 64.8634 20.1873Z" fill="white"/>
<path d="M86.4271 12.5092H75.1194V14.4472H79.5859V23.4911H81.9606V14.4472H86.4271V12.5092Z" fill="white"/>
<path d="M99.6268 23.4911L96.536 19.2091C97.7799 18.9322 99.1745 17.9356 99.1745 15.9237C99.1745 13.8381 97.761 12.4538 95.311 12.4538H88.4133V23.4911H90.6749V19.8182H94.3876L96.781 23.4911H99.6268ZM94.6703 17.7879H90.6749V14.2626H94.953C96.1591 14.2626 96.8564 14.8348 96.8564 15.9976C96.8564 17.0865 96.1026 17.7879 94.6703 17.7879Z" fill="white"/>
<path d="M111.221 14.3549V12.5092H101.609V23.4911H111.221V21.6454H103.871V18.9138H111.032V17.0681H103.871V14.3549H111.221Z" fill="white"/>
<path d="M122.253 23.4911H124.798L120.651 12.4538H117.052L112.83 23.4911H115.186L116.128 20.8887H121.33L122.253 23.4911ZM116.807 19.0061L118.559 14.1334H118.936L120.67 19.0061H116.807Z" fill="white"/>
<path d="M132.121 21.6639H134.608L137.511 14.1888H137.831L137.793 23.4911H140.055L139.998 12.5092H135.946L133.515 19.1168L131.009 12.5092H126.825L126.768 23.4911H128.954L128.86 14.1888H129.181L132.121 21.6639Z" fill="white"/>
</svg>
