<svg width="121" height="33" viewBox="0 0 121 33" fill="none" xmlns="http://www.w3.org/2000/svg">
<path d="M46.7999 0L3.03859 0.014199C1.27791 0.014199 0 1.29211 0 3.05279V29.8037C0 31.5644 1.27791 32.8423 3.03859 32.8423L46.7999 32.8281C48.5606 32.8281 49.8385 31.5502 49.8385 29.7895V3.03859C49.8385 1.27791 48.5606 0 46.7999 0ZM23.684 21.2985V24.4933H6.91492V18.8989C9.59853 18.2315 13.4323 17.266 15.2355 16.7406C18.8421 15.6899 19.7508 14.8238 19.7508 13.0489C19.7508 11.0184 18.0611 10.0245 15.3207 10.0245C12.7081 10.0245 10.5499 10.9048 10.6635 14.3978H6.58834C6.36116 10.2659 8.562 6.80133 15.2071 6.80133C21.5541 6.80133 23.8827 9.47074 23.8827 12.8217C23.8827 15.4059 22.9882 17.5926 18.8137 18.8705C15.9029 19.7792 12.9921 20.333 10.1097 20.8584V21.2985H23.684ZM44.0027 22.6616H40.9216V24.9903H37.4002V22.6616H26.0126V17.2234C31.2236 14.5114 34.6598 9.59853 35.4123 7.11371H40.0412C37.2156 12.4099 32.1608 17.479 29.0654 19.0267V19.6656H37.386V15.2355H40.9074V19.6656H43.9885L44.0027 22.6616Z"/>
<path d="M104.3 32.8281H70.0238C59.8715 32.8281 53.3257 26.4812 53.3115 16.6554V16.1869C53.3115 6.36116 59.8573 0 70.0096 0H104.286C114.438 0 120.998 6.34696 120.998 16.1869V16.6554C121.012 26.4812 114.452 32.8281 104.3 32.8281ZM70.0096 0.823543C60.3542 0.823543 54.1209 6.85812 54.1209 16.2011V16.6696C54.1209 26.0126 60.3684 32.0472 70.0238 32.033H104.3C113.955 32.033 120.189 25.9984 120.189 16.6554V16.1869C120.189 6.84392 113.941 0.809344 104.286 0.823543H70.0096Z" fill="#26272D"/>
<path d="M80.6953 7.0708V10.1378H87.6954V24.8622H91.2594V10.1378H98.2595V7.0708H80.6953Z" />
<path d="M62.1931 7.0708V10.1378H69.1932V24.8622H72.7572V10.1378H79.7573V7.0708H62.1931Z" />
<path d="M102.655 21.5964V7.0708H99.0911V24.8622H113.546V21.5964H102.655Z" />
</svg>
