<svg width="308" height="151" viewBox="0 0 308 151" fill="none" xmlns="http://www.w3.org/2000/svg">
<path d="M272.734 68.4673H148.362C127.2 68.4673 113.499 55.2518 113.499 34.7257V33.7416C113.499 13.2623 127.2 0 148.362 0H272.734C293.895 0 307.596 13.2154 307.596 33.7416V34.7257C307.596 55.205 293.895 68.4673 272.734 68.4673ZM148.362 1.68708C128.186 1.68708 115.188 14.2933 115.188 33.7416V34.7257C115.188 54.2208 128.232 66.7802 148.409 66.7802H272.781C292.957 66.7802 305.954 54.174 305.954 34.7257V33.7416C305.954 14.2464 292.91 1.68708 272.734 1.68708H148.362Z" fill="black"/>
<path d="M163.355 14.0686C150.089 14.0686 141.978 21.0438 141.978 33.8003C141.978 47.6251 150.089 53.2178 163.355 53.2178C176.496 53.2178 184.733 47.6251 184.733 33.8003C184.733 21.0438 176.496 14.0686 163.355 14.0686ZM163.293 46.6196C156.628 46.6196 150.34 43.729 150.34 33.8003C150.34 23.8716 156.628 20.6668 163.293 20.6668C169.957 20.6668 176.371 23.8716 176.371 33.8003C176.371 43.729 169.957 46.6196 163.293 46.6196Z" fill="black"/>
<path d="M228.322 52.2752L218.011 37.6964C222.16 36.7538 226.813 33.3604 226.813 26.5109C226.813 19.41 222.097 14.697 213.924 14.697H190.912V52.2752H198.457V39.7701H210.843L218.828 52.2752H228.322ZM211.786 32.8577H198.457V20.8553H212.729C216.753 20.8553 219.079 22.8033 219.079 26.7622C219.079 30.4698 216.565 32.8577 211.786 32.8577Z" fill="black"/>
<path d="M250.781 46.0541H259.08L268.763 20.6039H269.832L269.706 52.2752H277.251L277.062 14.8855H263.544L255.433 37.3822L247.071 14.8855H233.113L232.924 52.2752H240.218L239.903 20.6039H240.972L250.781 46.0541Z" fill="black"/>
<path fill-rule="evenodd" clip-rule="evenodd" d="M289.448 86.4775H18C10.268 86.4775 4 92.7456 4 100.478V133C4 140.732 10.268 147 18 147H289.448C297.18 147 303.448 140.732 303.448 133V100.478C303.448 92.7455 297.18 86.4775 289.448 86.4775ZM18 82.4775C8.05887 82.4775 0 90.5364 0 100.478V133C0 142.941 8.05885 151 18 151H289.448C299.389 151 307.448 142.941 307.448 133V100.478C307.448 90.5364 299.389 82.4775 289.448 82.4775H18Z" fill="white"/>
<path d="M22.6469 124.27H14.4033C14.4033 133.654 22.5161 136.848 33.6384 136.848C45.0224 136.848 53.3314 133.254 53.3314 124.404C53.3314 117.483 49.6022 113.823 39.1341 112.691C26.6379 111.36 22.7123 111.161 22.7123 107.234C22.7123 103.774 26.2453 102.376 32.5261 102.376C38.2836 102.376 43.3868 103.441 43.7139 108.432H51.6303C51.6303 99.1156 43.9102 95.9213 33.115 95.9213C22.4506 95.9213 14.7959 99.8476 14.7959 108.366C14.7959 115.553 19.1794 118.681 30.5634 119.679C41.4894 120.61 44.8915 120.877 44.8915 125.335C44.8915 129.328 40.508 130.393 34.5543 130.393C28.4044 130.393 23.0395 129.328 22.6469 124.27Z" fill="white"/>
<path d="M80.7121 137.114C67.4962 137.114 59.3834 131.191 59.3834 116.618C59.3834 103.175 67.4962 95.7882 80.7121 95.7882C95.1057 95.7882 100.994 104.04 100.929 112.824H92.2924C91.9653 105.238 86.1424 102.776 80.7775 102.776C74.3004 102.776 68.085 106.17 68.085 116.618C68.085 127.065 74.3004 130.127 80.7775 130.127C86.1424 130.127 91.9653 127.997 92.2924 120.411H100.929C100.994 129.195 95.1057 137.114 80.7121 137.114Z" fill="white"/>
<path d="M138.87 96.5868V112.558H116.233V96.5868H108.251V136.182H116.233V119.413H138.87V136.182H146.852V96.5868H138.87Z" fill="white"/>
<path d="M177.098 95.7217C163.294 95.7217 154.854 103.108 154.854 116.618C154.854 131.258 163.294 137.181 177.098 137.181C190.772 137.181 199.343 131.258 199.343 116.618C199.343 103.108 190.772 95.7217 177.098 95.7217ZM177.033 130.193C170.098 130.193 163.555 127.132 163.555 116.618C163.555 106.103 170.098 102.709 177.033 102.709C183.968 102.709 190.641 106.103 190.641 116.618C190.641 127.132 183.968 130.193 177.033 130.193Z" fill="white"/>
<path d="M227.645 95.7217C213.84 95.7217 205.4 103.108 205.4 116.618C205.4 131.258 213.84 137.181 227.645 137.181C241.319 137.181 249.889 131.258 249.889 116.618C249.889 103.108 241.319 95.7217 227.645 95.7217ZM227.579 130.193C220.644 130.193 214.102 127.132 214.102 116.618C214.102 106.103 220.644 102.709 227.579 102.709C234.514 102.709 241.188 106.103 241.188 116.618C241.188 127.132 234.514 130.193 227.579 130.193Z" fill="white"/>
<path d="M266.022 128.663V96.5868H257.909V136.182H290.949V128.663H266.022Z" fill="white"/>
<path d="M97.664 0L6.34139 0.029625C2.66715 0.029625 0.000366211 2.69587 0.000366211 6.36937V62.1828C0.000366211 65.8563 2.66715 68.5225 6.34139 68.5225L97.664 68.4928C101.338 68.4928 104.005 65.8266 104.005 62.1531V6.33973C104.005 2.66625 101.338 0 97.664 0ZM49.4248 44.4374V51.103H14.4306V39.4308C20.0308 38.0384 28.0312 36.0239 31.7944 34.9278C39.3206 32.7355 41.217 30.9285 41.217 27.2253C41.217 22.989 37.6909 20.9152 31.9721 20.9152C26.5201 20.9152 22.0162 22.7519 22.2532 30.0396H13.7491C13.275 21.4189 17.8678 14.1904 31.7352 14.1904C44.9801 14.1904 49.8397 19.7598 49.8397 26.7513C49.8397 32.143 47.9728 36.7053 39.2614 39.3715C33.1871 41.2675 27.1127 42.4229 21.0976 43.519V44.4374H49.4248ZM91.8267 47.2814H85.3968V52.1399H78.0483V47.2814H54.2843V35.935C65.1589 30.2767 72.3296 20.0265 73.9 14.8421H83.5597C77.6631 25.8921 67.1145 36.4682 60.6549 39.6974V41.0305H78.0186V31.7876H85.3671V41.0305H91.797L91.8267 47.2814Z" fill="black"/>
</svg>
