<svg width="70" height="70" viewBox="0 0 70 70" fill="none" xmlns="http://www.w3.org/2000/svg">
<rect x="0.5" y="0.5" width="69" height="69" rx="34.5" fill="black" stroke="white"/>
<path d="M47.3594 37.9824V24.5156C47.3594 24.0625 46.9922 23.6953 46.5391 23.6953H42.3828V22.8203C42.3828 22.3672 42.0156 22 41.5625 22C41.1094 22 40.7422 22.3672 40.7422 22.8203V23.6953H37.4609V22.8203C37.4609 22.3672 37.0937 22 36.6406 22C36.1875 22 35.8203 22.3672 35.8203 22.8203V23.6953H32.5391V22.8203C32.5391 22.3672 32.1718 22 31.7188 22C31.2657 22 30.8984 22.3672 30.8984 22.8203V23.6953H27.6172V22.8203C27.6172 22.3672 27.25 22 26.7969 22C26.3438 22 25.9766 22.3672 25.9766 22.8203V23.6953H21.8203C21.3672 23.6953 21 24.0625 21 24.5156V45.8984C21 46.3515 21.3672 46.7188 21.8203 46.7188H35.4815C36.8077 48.6958 39.0629 50 41.6172 50C45.688 50 49 46.688 49 42.6172C49 40.8633 48.3848 39.2505 47.3594 37.9824ZM25.9766 25.3359V26.1562C25.9766 26.6093 26.3438 26.9766 26.7969 26.9766C27.25 26.9766 27.6172 26.6093 27.6172 26.1562V25.3359H30.8984V26.1562C30.8984 26.6093 31.2657 26.9766 31.7188 26.9766C32.1718 26.9766 32.5391 26.6093 32.5391 26.1562V25.3359H35.8203V26.1562C35.8203 26.6093 36.1875 26.9766 36.6406 26.9766C37.0937 26.9766 37.4609 26.6093 37.4609 26.1562V25.3359H40.7422V26.1562C40.7422 26.6093 41.1094 26.9766 41.5625 26.9766C42.0156 26.9766 42.3828 26.6093 42.3828 26.1562V25.3359H45.7188V28.6172H22.6406V25.3359H25.9766ZM22.6406 45.0781V30.2578H45.7188V36.4815C44.5449 35.6943 43.1337 35.2344 41.6172 35.2344C39.0251 35.2344 36.741 36.5774 35.4234 38.6039C35.3125 38.5479 35.1876 38.5156 35.0547 38.5156H33.4141C32.961 38.5156 32.5938 38.8828 32.5938 39.3359C32.5938 39.789 32.961 40.1562 33.4141 40.1562H34.6567C34.4715 40.6788 34.3433 41.2282 34.2803 41.7969H33.4141C32.961 41.7969 32.5938 42.1641 32.5938 42.6172C32.5938 43.0703 32.961 43.4375 33.4141 43.4375H34.2803C34.3433 44.0062 34.4713 44.5556 34.6567 45.0781H22.6406ZM41.6172 48.3594C38.4509 48.3594 35.875 45.7835 35.875 42.6172C35.875 39.4509 38.4509 36.875 41.6172 36.875C44.7835 36.875 47.3594 39.4509 47.3594 42.6172C47.3594 45.7835 44.7835 48.3594 41.6172 48.3594Z" fill="#FECE32"/>
<path d="M44.8984 41.7969H42.4375V39.3359C42.4375 38.8828 42.0703 38.5156 41.6172 38.5156C41.1641 38.5156 40.7969 38.8828 40.7969 39.3359V42.6172C40.7969 43.0703 41.1641 43.4375 41.6172 43.4375H44.8984C45.3515 43.4375 45.7188 43.0703 45.7188 42.6172C45.7188 42.1641 45.3515 41.7969 44.8984 41.7969Z" fill="#FECE32"/>
<path d="M28.4375 31.9531H26.7969C26.3438 31.9531 25.9766 32.3203 25.9766 32.7734C25.9766 33.2265 26.3438 33.5938 26.7969 33.5938H28.4375C28.8906 33.5938 29.2578 33.2265 29.2578 32.7734C29.2578 32.3203 28.8906 31.9531 28.4375 31.9531Z" fill="#FECE32"/>
<path d="M28.4375 35.2344H26.7969C26.3438 35.2344 25.9766 35.6016 25.9766 36.0547C25.9766 36.5078 26.3438 36.875 26.7969 36.875H28.4375C28.8906 36.875 29.2578 36.5078 29.2578 36.0547C29.2578 35.6016 28.8906 35.2344 28.4375 35.2344Z" fill="#FECE32"/>
<path d="M28.4375 38.5156H26.7969C26.3438 38.5156 25.9766 38.8828 25.9766 39.3359C25.9766 39.789 26.3438 40.1562 26.7969 40.1562H28.4375C28.8906 40.1562 29.2578 39.789 29.2578 39.3359C29.2578 38.8828 28.8906 38.5156 28.4375 38.5156Z" fill="#FECE32"/>
<path d="M33.4141 33.5938H35.0547C35.5078 33.5938 35.875 33.2265 35.875 32.7734C35.875 32.3203 35.5078 31.9531 35.0547 31.9531H33.4141C32.961 31.9531 32.5938 32.3203 32.5938 32.7734C32.5938 33.2265 32.961 33.5938 33.4141 33.5938Z" fill="#FECE32"/>
<path d="M33.4141 36.875H35.0547C35.5078 36.875 35.875 36.5078 35.875 36.0547C35.875 35.6016 35.5078 35.2344 35.0547 35.2344H33.4141C32.961 35.2344 32.5938 35.6016 32.5938 36.0547C32.5938 36.5078 32.961 36.875 33.4141 36.875Z" fill="#FECE32"/>
<path d="M28.4375 41.7969H26.7969C26.3438 41.7969 25.9766 42.1641 25.9766 42.6172C25.9766 43.0703 26.3438 43.4375 26.7969 43.4375H28.4375C28.8906 43.4375 29.2578 43.0703 29.2578 42.6172C29.2578 42.1641 28.8906 41.7969 28.4375 41.7969Z" fill="#FECE32"/>
<path d="M39.9766 33.5938H41.6172C42.0703 33.5938 42.4375 33.2265 42.4375 32.7734C42.4375 32.3203 42.0703 31.9531 41.6172 31.9531H39.9766C39.5235 31.9531 39.1562 32.3203 39.1562 32.7734C39.1562 33.2265 39.5235 33.5938 39.9766 33.5938Z" fill="#FECE32"/>
</svg>
