<svg width="13" height="16" viewBox="0 0 13 16" fill="none" xmlns="http://www.w3.org/2000/svg">
<path fill-rule="evenodd" clip-rule="evenodd" d="M0 13.2534V11.6953C0 11.6953 2.56943 10.7659 2.14147 6.84568C1.89907 4.09403 2.69815 2.30028 4.73597 1.70348V1.41427C4.73597 1.02476 4.89479 0.670358 5.15056 0.414586C5.408 0.158813 5.76074 0 6.15025 0C6.53976 0 6.89249 0.158813 7.14993 0.414586C7.4057 0.670358 7.56452 1.02476 7.56452 1.41427V1.70348C9.60234 2.30028 10.4014 4.09403 10.159 6.84568C9.73106 10.7659 12.3005 11.6953 12.3005 11.6953V13.2534H0ZM5.5735 1.53464C5.75906 1.51123 5.94964 1.49619 6.15025 1.4895C6.35085 1.49619 6.54143 1.51123 6.72699 1.53464V1.41427C6.72699 1.25546 6.66179 1.11169 6.55647 1.00805C6.45283 0.902727 6.30906 0.83753 6.15025 0.83753C5.99143 0.83753 5.84766 0.902727 5.74402 1.00805C5.6387 1.11169 5.5735 1.25546 5.5735 1.41427V1.53464Z" fill="black"/>
<path d="M6.15025 16C5.12381 16 4.2913 15.1675 4.2913 14.1411C4.2913 14.0474 4.29798 13.9572 4.31136 13.8686H7.98913C8.00251 13.9572 8.00919 14.0474 8.00919 14.1411C8.00919 15.1675 7.17668 16 6.15025 16Z" fill="black"/>
</svg>
