<svg width="1040" height="185" viewBox="0 0 1040 185" fill="none" xmlns="http://www.w3.org/2000/svg">
<path d="M22.6619 162.327V94.5025H38.0719V74.1551H22.6619V22.1561H39.205V1.80864H0V182.675H40.3381V162.327H22.6619Z" fill="white"/>
<path d="M44.1818 102.415H86.3328V82.0679H44.1818V102.415Z" fill="white"/>
<path d="M131.442 182.675H154.784L140.507 72.5725C143.906 68.0508 145.946 61.2684 145.946 50.8686V28.2603C145.946 7.23464 135.975 1.80864 122.378 1.80864H94.2768V182.675H116.939V79.581H118.978L131.442 182.675ZM116.939 22.1561H118.525C122.831 22.1561 123.284 24.869 123.284 32.7819V48.6077C123.284 56.5206 122.831 59.2336 118.525 59.2336H116.939V22.1561Z" fill="white"/>
<path d="M182.003 162.327V94.5025H197.413V74.1551H182.003V22.1561H198.546V1.80864H159.341V182.675H199.679V162.327H182.003Z" fill="white"/>
<path d="M252.219 1.80864H202.363V23.2865H215.96V182.675H238.622V23.2865H252.219V1.80864Z" fill="white"/>
<path d="M282.436 182.675H305.324L292.18 1.80864H260L246.857 182.675H268.385L271.105 123.893H279.943L282.436 182.675ZM272.238 103.546L272.918 87.0417L274.731 31.1994H276.77L278.357 87.0417L279.036 103.546H272.238Z" fill="white"/>
<path d="M311.379 182.675H334.041V1.80864H311.379V182.675Z" fill="white"/>
<path d="M368.122 161.197V1.80864H345.46V182.675H381.266V161.197H368.122Z" fill="white"/>
<path d="M446.084 1.80864H396.228V23.2865H409.825V182.675H432.487V23.2865H446.084V1.80864Z" fill="white"/>
<path d="M474.35 162.327V94.5025H489.76V74.1551H474.35V22.1561H490.893V1.80864H451.688V182.675H492.026V162.327H474.35Z" fill="white"/>
<path d="M523.97 184.483C537.567 184.483 549.805 179.057 549.805 150.345V97.8937H527.143V153.51C527.143 161.423 526.69 164.136 523.97 164.136C521.251 164.136 520.798 161.423 520.798 153.51V30.9733C520.798 23.0604 521.251 20.3474 523.97 20.3474C526.69 20.3474 527.143 23.0604 527.143 30.9733V84.3288H549.805V34.1385C549.805 5.42596 537.567 0 523.97 0C510.373 0 498.136 5.42596 498.136 34.1385V150.345C498.136 179.057 510.373 184.483 523.97 184.483Z" fill="white"/>
<path d="M590.047 1.80864V73.4768H582.569V1.80864H559.907V182.675H582.569V95.1807H590.047V182.675H612.709V1.80864H590.047Z" fill="white"/>
<path d="M677.026 182.675H699.915L686.771 1.80864H654.591L641.447 182.675H662.976L665.695 123.893H674.534L677.026 182.675ZM666.828 103.546L667.508 87.0417L669.321 31.1994H671.361L672.947 87.0417L673.627 103.546H666.828Z" fill="white"/>
<path d="M779.168 1.80864L774.409 137.458H772.369L765.117 1.80864H736.11L727.499 137.458H725.459L722.06 1.80864H699.171L710.955 182.675H739.056L747.668 94.0503L748.801 57.651H750.84L752.2 93.8243L760.811 182.675H788.912L800.696 1.80864H779.168Z" fill="white"/>
<path d="M834.597 182.675H857.485L844.342 1.80864H812.162L799.018 182.675H820.547L823.266 123.893H832.104L834.597 182.675ZM824.399 103.546L825.079 87.0417L826.892 31.1994H828.932L830.518 87.0417L831.198 103.546H824.399Z" fill="white"/>
<path d="M900.706 182.675H924.048L909.771 72.5725C913.17 68.0508 915.209 61.2684 915.209 50.8686V28.2603C915.209 7.23464 905.238 1.80864 891.641 1.80864H863.541V182.675H886.202V79.581H888.242L900.706 182.675ZM886.202 22.1561H887.789C892.094 22.1561 892.548 24.869 892.548 32.7819V48.6077C892.548 56.5206 892.094 59.2336 887.789 59.2336H886.202V22.1561Z" fill="white"/>
<path d="M956.706 1.80864H928.605V182.675H956.706C970.303 182.675 980.274 177.249 980.274 153.962V30.5211C980.274 7.23461 970.303 1.80864 956.706 1.80864ZM957.612 149.441C957.612 159.614 957.159 162.327 952.853 162.327H951.267V22.1561H952.853C957.159 22.1561 957.612 24.8691 957.612 35.0428V149.441Z" fill="white"/>
<path d="M1013.04 184.483C1025.96 184.483 1039.33 179.057 1039.33 152.606V135.65C1039.33 89.3026 1010.32 75.9637 1010.32 36.6253V30.9733C1010.32 23.0604 1010.77 20.3474 1013.49 20.3474C1016.21 20.3474 1016.66 23.0604 1016.66 30.9733V58.3293H1039.33V29.6168C1039.33 5.42597 1028.22 0 1013.94 0C1001.03 0 987.657 5.42598 987.657 31.8776V38.2079C987.657 84.5548 1016.66 97.8937 1016.66 137.232V153.51C1016.66 161.423 1016.21 164.136 1013.49 164.136C1010.77 164.136 1010.32 161.423 1010.32 153.51V117.111H987.657V154.867C987.657 179.057 998.761 184.483 1013.04 184.483Z" fill="white"/>
</svg>
