<svg width="35" height="34" viewBox="0 0 35 34" fill="none" xmlns="http://www.w3.org/2000/svg">
<path d="M16.9168 15.7964L25.3989 7.31426L17.4495 7.31426L17.4495 5.42934L28.3082 5.42934L28.677 5.79813L28.6565 16.6364L26.7921 16.6569L26.7921 8.70746L18.31 17.1896L16.9168 15.7964Z" fill="#4992FF"/>
<path fill-rule="evenodd" clip-rule="evenodd" d="M13 9.00049H3C1.34315 9.00049 0 10.3436 0 12.0005V31.0005C0 32.6573 1.34315 34.0005 3 34.0005H22C23.6569 34.0005 25 32.6573 25 31.0005V21.0005H23V31.0005C23 31.5528 22.5523 32.0005 22 32.0005H3C2.44772 32.0005 2 31.5528 2 31.0005V12.0005C2 11.4482 2.44772 11.0005 3 11.0005H13V9.00049Z" fill="#4992FF"/>
</svg>
