<svg width="29" height="20" viewBox="0 0 29 20" fill="none" xmlns="http://www.w3.org/2000/svg">
<path fill-rule="evenodd" clip-rule="evenodd" d="M14.6923 19.2306C7.04235 19.2306 0.846191 9.99981 0.846191 9.99981C0.846191 9.99981 7.04235 0.769043 14.6923 0.769043C22.3423 0.769043 28.5385 9.99981 28.5385 9.99981C28.5385 9.99981 22.3423 19.2306 14.6923 19.2306ZM14.6923 4.22626C11.5077 4.22626 8.91158 6.81917 8.91158 9.99981C8.91158 13.1805 11.5077 15.7734 14.6923 15.7734C17.877 15.7734 20.4731 13.1805 20.4731 9.99981C20.4731 6.81917 17.877 4.22626 14.6923 4.22626ZM14.6923 13.457C12.7885 13.457 11.2308 11.9013 11.2308 9.99981C11.2308 8.09834 12.7885 6.5426 14.6923 6.5426C16.5962 6.5426 18.1539 8.09834 18.1539 9.99981C18.1539 11.9013 16.5962 13.457 14.6923 13.457Z" fill="#26272D"/>
</svg>
