<svg display="none"
     xmlns="http://www.w3.org/2000/svg">

    <symbol id="24-ttl" viewBox="0 0 121 33">
        <g>
             <path d="M46.7999 0L3.03859 0.014199C1.27791 0.014199 0 1.29211 0 3.05279V29.8037C0 31.5644 1.27791 32.8423 3.03859 32.8423L46.7999 32.8281C48.5606 32.8281 49.8385 31.5502 49.8385 29.7895V3.03859C49.8385 1.27791 48.5606 0 46.7999 0ZM23.684 21.2985V24.4933H6.91492V18.8989C9.59853 18.2315 13.4323 17.266 15.2355 16.7406C18.8421 15.6899 19.7508 14.8238 19.7508 13.0489C19.7508 11.0184 18.0611 10.0245 15.3207 10.0245C12.7081 10.0245 10.5499 10.9048 10.6635 14.3978H6.58834C6.36116 10.2659 8.562 6.80133 15.2071 6.80133C21.5541 6.80133 23.8827 9.47074 23.8827 12.8217C23.8827 15.4059 22.9882 17.5926 18.8137 18.8705C15.9029 19.7792 12.9921 20.333 10.1097 20.8584V21.2985H23.684ZM44.0027 22.6616H40.9216V24.9903H37.4002V22.6616H26.0126V17.2234C31.2236 14.5114 34.6598 9.59853 35.4123 7.11371H40.0412C37.2156 12.4099 32.1608 17.479 29.0654 19.0267V19.6656H37.386V15.2355H40.9074V19.6656H43.9885L44.0027 22.6616Z" />
            <path d="M104.3 32.8281H70.0238C59.8715 32.8281 53.3257 26.4812 53.3115 16.6554V16.1869C53.3115 6.36116 59.8573 0 70.0096 0H104.286C114.438 0 120.998 6.34696 120.998 16.1869V16.6554C121.012 26.4812 114.452 32.8281 104.3 32.8281ZM70.0096 0.823543C60.3542 0.823543 54.1209 6.85812 54.1209 16.2011V16.6696C54.1209 26.0126 60.3684 32.0472 70.0238 32.033H104.3C113.955 32.033 120.189 25.9984 120.189 16.6554V16.1869C120.189 6.84392 113.941 0.809344 104.286 0.823543H70.0096Z" />
            <path d="M80.6953 7.0708V10.1378H87.6954V24.8622H91.2594V10.1378H98.2595V7.0708H80.6953Z" />
            <path d="M62.1931 7.0708V10.1378H69.1932V24.8622H72.7572V10.1378H79.7573V7.0708H62.1931Z" />
            <path d="M102.655 21.5964V7.0708H99.0911V24.8622H113.546V21.5964H102.655Z" />
        </g>
    </symbol>

    <symbol id="calendar" viewBox="0 0 70 70">
        <g>
            <rect xmlns="http://www.w3.org/2000/svg" x="0.5" y="0.5" width="69" height="69" rx="34.5" fill="black" stroke="white"/>
           <path d="M47.3594 37.9824V24.5156C47.3594 24.0625 46.9922 23.6953 46.5391 23.6953H42.3828V22.8203C42.3828 22.3672 42.0156 22 41.5625 22C41.1094 22 40.7422 22.3672 40.7422 22.8203V23.6953H37.4609V22.8203C37.4609 22.3672 37.0937 22 36.6406 22C36.1875 22 35.8203 22.3672 35.8203 22.8203V23.6953H32.5391V22.8203C32.5391 22.3672 32.1718 22 31.7188 22C31.2657 22 30.8984 22.3672 30.8984 22.8203V23.6953H27.6172V22.8203C27.6172 22.3672 27.25 22 26.7969 22C26.3438 22 25.9766 22.3672 25.9766 22.8203V23.6953H21.8203C21.3672 23.6953 21 24.0625 21 24.5156V45.8984C21 46.3515 21.3672 46.7188 21.8203 46.7188H35.4815C36.8077 48.6958 39.0629 50 41.6172 50C45.688 50 49 46.688 49 42.6172C49 40.8633 48.3848 39.2505 47.3594 37.9824ZM25.9766 25.3359V26.1562C25.9766 26.6093 26.3438 26.9766 26.7969 26.9766C27.25 26.9766 27.6172 26.6093 27.6172 26.1562V25.3359H30.8984V26.1562C30.8984 26.6093 31.2657 26.9766 31.7188 26.9766C32.1718 26.9766 32.5391 26.6093 32.5391 26.1562V25.3359H35.8203V26.1562C35.8203 26.6093 36.1875 26.9766 36.6406 26.9766C37.0937 26.9766 37.4609 26.6093 37.4609 26.1562V25.3359H40.7422V26.1562C40.7422 26.6093 41.1094 26.9766 41.5625 26.9766C42.0156 26.9766 42.3828 26.6093 42.3828 26.1562V25.3359H45.7188V28.6172H22.6406V25.3359H25.9766ZM22.6406 45.0781V30.2578H45.7188V36.4815C44.5449 35.6943 43.1337 35.2344 41.6172 35.2344C39.0251 35.2344 36.741 36.5774 35.4234 38.6039C35.3125 38.5479 35.1876 38.5156 35.0547 38.5156H33.4141C32.961 38.5156 32.5938 38.8828 32.5938 39.3359C32.5938 39.789 32.961 40.1562 33.4141 40.1562H34.6567C34.4715 40.6788 34.3433 41.2282 34.2803 41.7969H33.4141C32.961 41.7969 32.5938 42.1641 32.5938 42.6172C32.5938 43.0703 32.961 43.4375 33.4141 43.4375H34.2803C34.3433 44.0062 34.4713 44.5556 34.6567 45.0781H22.6406ZM41.6172 48.3594C38.4509 48.3594 35.875 45.7835 35.875 42.6172C35.875 39.4509 38.4509 36.875 41.6172 36.875C44.7835 36.875 47.3594 39.4509 47.3594 42.6172C47.3594 45.7835 44.7835 48.3594 41.6172 48.3594Z" fill="#FECE32"/>
<path d="M44.8984 41.7969H42.4375V39.3359C42.4375 38.8828 42.0703 38.5156 41.6172 38.5156C41.1641 38.5156 40.7969 38.8828 40.7969 39.3359V42.6172C40.7969 43.0703 41.1641 43.4375 41.6172 43.4375H44.8984C45.3515 43.4375 45.7188 43.0703 45.7188 42.6172C45.7188 42.1641 45.3515 41.7969 44.8984 41.7969Z" fill="#FECE32"/>
<path d="M28.4375 31.9531H26.7969C26.3438 31.9531 25.9766 32.3203 25.9766 32.7734C25.9766 33.2265 26.3438 33.5938 26.7969 33.5938H28.4375C28.8906 33.5938 29.2578 33.2265 29.2578 32.7734C29.2578 32.3203 28.8906 31.9531 28.4375 31.9531Z" fill="#FECE32"/>
<path d="M28.4375 35.2344H26.7969C26.3438 35.2344 25.9766 35.6016 25.9766 36.0547C25.9766 36.5078 26.3438 36.875 26.7969 36.875H28.4375C28.8906 36.875 29.2578 36.5078 29.2578 36.0547C29.2578 35.6016 28.8906 35.2344 28.4375 35.2344Z" fill="#FECE32"/>
<path d="M28.4375 38.5156H26.7969C26.3438 38.5156 25.9766 38.8828 25.9766 39.3359C25.9766 39.789 26.3438 40.1562 26.7969 40.1562H28.4375C28.8906 40.1562 29.2578 39.789 29.2578 39.3359C29.2578 38.8828 28.8906 38.5156 28.4375 38.5156Z" fill="#FECE32"/>
<path d="M33.4141 33.5938H35.0547C35.5078 33.5938 35.875 33.2265 35.875 32.7734C35.875 32.3203 35.5078 31.9531 35.0547 31.9531H33.4141C32.961 31.9531 32.5938 32.3203 32.5938 32.7734C32.5938 33.2265 32.961 33.5938 33.4141 33.5938Z" fill="#FECE32"/>
<path d="M33.4141 36.875H35.0547C35.5078 36.875 35.875 36.5078 35.875 36.0547C35.875 35.6016 35.5078 35.2344 35.0547 35.2344H33.4141C32.961 35.2344 32.5938 35.6016 32.5938 36.0547C32.5938 36.5078 32.961 36.875 33.4141 36.875Z" fill="#FECE32"/>
<path d="M28.4375 41.7969H26.7969C26.3438 41.7969 25.9766 42.1641 25.9766 42.6172C25.9766 43.0703 26.3438 43.4s375 26.7969 43.4375H28.4375C28.8906 43.4375 29.2578 43.0703 29.2578 42.6172C29.2578 42.1641 28.8906 41.7969 28.4375 41.7969Z" fill="#FECE32"/>
<path d="M39.9766 33.5938H41.6172C42.0703 33.5938 42.4375 33.2265 42.4375 32.7734C42.4375 32.3203 42.0703 31.9531 41.6172 31.9531H39.9766C39.5235 31.9531 39.1562 32.3203 39.1562 32.7734C39.1562 33.2265 39.5235 33.5938 39.9766 33.5938Z" fill="#FECE32"/>
        </g>
    </symbol>

<symbol id="share" viewBox="0 0 35 34">
    <g>
        <path d="M16.9168 15.7964L25.3989 7.31426L17.4495 7.31426L17.4495 5.42934L28.3082 5.42934L28.677 5.79813L28.6565 16.6364L26.7921 16.6569L26.7921 8.70746L18.31 17.1896L16.9168 15.7964Z" fill="#4992FF"/>
        <path fill-rule="evenodd" clip-rule="evenodd" d="M13 9.00049H3C1.34315 9.00049 0 10.3436 0 12.0005V31.0005C0 32.6573 1.34315 34.0005 3 34.0005H22C23.6569 34.0005 25 32.6573 25 31.0005V21.0005H23V31.0005C23 31.5528 22.5523 32.0005 22 32.0005H3C2.44772 32.0005 2 31.5528 2 31.0005V12.0005C2 11.4482 2.44772 11.0005 3 11.0005H13V9.00049Z" fill="#4992FF"/>
    </g>
</symbol>


</svg>
