<svg width="367" height="83" viewBox="0 0 367 83" fill="none" xmlns="http://www.w3.org/2000/svg">
<path d="M117.669 0L7.63112 0.0568104C3.2228 0.0568104 0.00134277 3.295 0.00134277 7.72621V75.3306C0.00134277 79.7618 3.2228 83 7.63112 83L117.669 82.9432C122.078 82.9432 125.299 79.705 125.299 75.2738V7.6694C125.356 3.23819 122.134 0 117.669 0ZM59.5701 53.8563V61.9233H17.4085V47.7775C24.134 46.0732 33.7984 43.6304 38.3198 42.3237C47.419 39.6537 49.6797 37.4381 49.6797 32.95C49.6797 27.7803 45.4409 25.2806 38.5458 25.2806C31.9334 25.2806 26.5643 27.4962 26.8469 36.3018H16.6173C16.0521 25.8487 21.5908 17.0999 38.2633 17.0999C54.201 17.0999 60.0788 23.8604 60.0788 32.3251C60.0788 38.8583 57.8181 44.3689 47.3625 47.6071C40.0153 49.8795 32.7246 51.2998 25.4904 52.6064V53.6858L59.5701 53.8563ZM110.661 57.2649H102.919V63.1732H94.0454V57.2649H65.4479V43.5168C78.5598 36.6427 87.2069 24.258 89.0719 17.9521H100.714C93.5933 31.3593 80.877 44.1417 73.1342 48.0616V49.6523H94.0454V38.4606H102.919V49.6523H110.661V57.2649Z" fill="white"/>
<path d="M323.954 83H176.671C151.182 83 134.679 66.9795 134.679 42.0965V40.9035C134.679 16.0773 151.182 0 176.671 0H323.954C349.443 0 365.946 16.0205 365.946 40.9035V42.0965C365.946 66.9227 349.443 83 323.954 83ZM176.671 2.04517C152.369 2.04517 136.714 17.3272 136.714 40.9035V42.0965C136.714 65.7296 152.425 80.9548 176.728 80.9548H324.01C348.313 80.9548 363.968 65.6728 363.968 42.0965V40.9035C363.968 17.2704 348.256 2.04517 323.954 2.04517H176.671Z" fill="white"/>
<path d="M194.734 17.0544C178.755 17.0544 168.985 25.5102 168.985 40.9744C168.985 57.7335 178.755 64.5134 194.734 64.5134C210.562 64.5134 220.483 57.7335 220.483 40.9744C220.483 25.5102 210.562 17.0544 194.734 17.0544ZM194.658 56.5147C186.631 56.5147 179.058 53.0105 179.058 40.9744C179.058 28.9382 186.631 25.0531 194.658 25.0531C202.686 25.0531 210.411 28.9382 210.411 40.9744C210.411 53.0105 202.686 56.5147 194.658 56.5147Z" fill="white"/>
<path d="M272.987 63.3707L260.567 45.6974C265.565 44.5547 271.169 40.4411 271.169 32.1377C271.169 23.5296 265.489 17.8162 255.644 17.8162H227.926V63.3707H237.014V48.2113H251.933L261.551 63.3707H272.987ZM253.069 39.8317H237.014V25.2817H254.205C259.052 25.2817 261.854 27.6432 261.854 32.4424C261.854 36.9369 258.825 39.8317 253.069 39.8317Z" fill="white"/>
<path d="M300.038 55.8291H310.035L321.698 24.977H322.985L322.833 63.3707H331.921L331.694 18.0448H315.412L305.642 45.3165L295.57 18.0448H278.757L278.53 63.3707H287.315L286.936 24.977H288.224L300.038 55.8291Z" fill="white"/>
</svg>
