<svg height="482pt" viewBox="-92 0 482 482.2021" width="482pt" xmlns="http://www.w3.org/2000/svg"><path d="m292.902344 93.402344-30.5-16.601563c-31.015625-16.785156-68.957032-14.015625-97.203125 7.101563-22.003907 16.425781-51.550781 18.574218-75.699219 5.5l-25.300781-13.800782v-12c15.761719-5.410156 24.929687-21.808593 21.28125-38.070312-3.644531-16.257812-18.9375-27.167969-35.5-25.332031-16.558594 1.839843-29.085938 15.839843-29.078125 32.5.167968 14.324219 9.53125 26.914062 23.199218 31.203125v361.296875h-23.5c-11.199218 0-20.5 8.703125-20.5 19.902343v27.300782c.128907 5.511718 4.683594 9.890625 10.199219 9.796875h87.5c5.515625.09375 10.074219-4.285157 10.199219-9.796875v-27.300782c0-11.199218-9.300781-19.902343-20.5-19.902343h-23.300781v-179.5l15.703125 8.5c31.011718 16.785156 68.953125 14.011719 97.199218-7.097657 21.96875-16.425781 51.484376-18.574218 75.597657-5.5l30.5 16.597657c3.128906 1.683593 6.910156 1.613281 9.976562-.183594 3.0625-1.796875 4.96875-5.0625 5.023438-8.613281v-147.203125c-.015625-3.683594-2.050781-7.0625-5.296875-8.796875zm-204.703125 351.699218v17.097657h-68v-17.097657c0-.199218.402343.097657.5.097657h66.902343c.199219 0 .597657-.296875.597657-.097657zm-34.5-425.101562c7.015625 0 12.703125 5.6875 12.703125 12.699219 0 7.015625-5.6875 12.703125-12.703125 12.703125-7.011719 0-12.699219-5.6875-12.699219-12.703125.011719-7.007813 5.691406-12.6875 12.699219-12.699219zm224.5 212.601562-15.796875-8.5c-31.050782-16.785156-69.019532-14.011718-97.300782 7.097657-22.007812 16.429687-51.550781 18.578125-75.699218 5.5l-25.203125-13.796875v-124.5l15.703125 8.5c31.011718 16.785156 68.953125 14.015625 97.199218-7.101563 22.042969-16.429687 51.617188-18.574219 75.800782-5.5l25.398437 13.699219v124.601562zm0 0"/></svg>