<?xml version="1.0" encoding="UTF-8"?>
<svg width="261px" height="228px" viewBox="0 0 261 228" version="1.1" xmlns="http://www.w3.org/2000/svg" xmlns:xlink="http://www.w3.org/1999/xlink">
    <!-- Generator: Sketch 63.1 (92452) - https://sketch.com -->
    <title>shopping-cart</title>
    <desc>Created with Sketch.</desc>
    <g id="Page-1" stroke="none" stroke-width="1" fill="none" fill-rule="evenodd">
        <g id="shopping-cart" fill="#000000" fill-rule="nonzero">
            <path d="M46.404,0.878 C49.82,0.878 52.804,3.185 53.663,6.491 L53.663,6.491 L61.996,38.546 L252.796,38.546 C255.118,38.546 257.31,39.622 258.73,41.459 L258.73,41.459 C260.154,43.3 260.644,45.692 260.044,47.935 L260.044,47.935 L230.659,160.905 C229.8,164.21 226.816,166.517 223.401,166.517 L223.401,166.517 L85.581,166.517 C82.166,166.517 79.182,164.21 78.323,160.905 L78.323,160.905 L48.942,47.935 C48.941,47.934 48.941,47.934 48.941,47.933 L48.941,47.933 L40.608,15.878 L7.496,15.878 C3.354,15.878 -0.004,12.52 -0.004,8.378 C-0.004,4.236 3.354,0.878 7.496,0.878 L7.496,0.878 Z M247.801855,50.1544111 L65.0229073,50.1544111 L90,155.036593 L219,155.036593 L247.801855,50.1544111 Z" id="Shape"></path>
            <path d="M105.48,172.62 C90.374,172.62 78.084,184.91 78.084,200.015 C78.084,215.123 90.374,227.415 105.48,227.415 C120.585,227.415 132.875,215.123 132.875,200.015 C132.875,184.905 120.585,172.615 105.475,172.615 L105.48,172.62 Z M105.500625,216 C96.9537735,216 90,209.044848 90,200.496874 C90,191.951401 96.9537735,185 105.500625,185 C114.046226,185 121,191.952652 121,200.496874 C121,209.036096 114.047477,216 105.494373,216 L105.500625,216 Z" id="Shape"></path>
            <path d="M203.51,172.62 C188.406,172.62 176.118,184.91 176.118,200.015 C176.118,215.123 188.406,227.415 203.51,227.415 C218.617,227.415 230.906,215.123 230.906,200.015 C230.906,184.905 218.616,172.615 203.506,172.615 L203.51,172.62 Z M203.497499,216 C194.952114,216 188,209.044848 188,200.496874 C188,191.951401 194.952114,185 203.497499,185 C212.046635,185 219,191.952652 219,200.496874 C219,209.036096 212.046635,216 203.492496,216 L203.497499,216 Z" id="Shape"></path>
        </g>
    </g>
</svg>