<?xml version="1.0" encoding="UTF-8"?>
<svg width="488px" height="466px" viewBox="0 0 488 466" version="1.1" xmlns="http://www.w3.org/2000/svg" xmlns:xlink="http://www.w3.org/1999/xlink">
    <!-- Generator: Sketch 63.1 (92452) - https://sketch.com -->
    <title>Untitled 6</title>
    <desc>Created with Sketch.</desc>
    <g id="Page-1" stroke="none" stroke-width="1" fill="none" fill-rule="evenodd">
        <g id="star" fill-rule="nonzero">
            <path d="M486.554,175.811 C484.954,170.911 480.754,167.411 475.654,166.611 L323.654,145.011 L255.254,7.511 C252.954,2.911 248.254,0.011 243.154,0.011 L243.154,0.011 C238.054,0.011 233.354,2.911 231.054,7.611 L163.554,145.511 L11.554,168.111 C6.454,168.911 2.254,172.411 0.654,177.311 C-0.946,182.211 0.454,187.611 4.154,191.111 L114.454,298.011 L88.954,449.411 C88.054,454.511 90.154,459.611 94.354,462.611 C96.654,464.311 99.454,465.211 102.254,465.211 C104.454,465.211 106.554,464.711 108.554,463.611 L244.254,391.711 L380.354,462.811 C382.354,463.811 384.454,464.311 386.554,464.311 L386.554,464.311 C393.954,464.311 400.054,458.211 400.054,450.811 C400.054,449.711 399.954,448.711 399.654,447.711 L373.354,297.211 L482.954,189.711 C486.854,186.111 488.154,180.711 486.554,175.811 Z"></path>
            <path d="M349.554,282.911 C346.354,286.011 344.954,290.511 345.754,294.911 L368.654,426.211 L250.454,364.511 C246.554,362.411 241.854,362.511 237.854,364.511 L120.054,426.911 L142.154,295.411 C142.854,291.011 141.454,286.611 138.254,283.511 L42.654,190.711 L174.554,171.111 C178.954,170.411 182.754,167.711 184.654,163.711 L243.254,44.011 L302.654,163.411 C304.654,167.411 308.454,170.111 312.854,170.811 L444.854,189.611 L349.554,282.911 Z"></path>
        </g>
    </g>
</svg>