<?xml version="1.0" encoding="UTF-8"?>
<svg width="21px" height="21px" viewBox="0 0 21 21" version="1.1" xmlns="http://www.w3.org/2000/svg" xmlns:xlink="http://www.w3.org/1999/xlink">
    <!-- Generator: Sketch 60 (88103) - https://sketch.com -->
    <title>Shape</title>
    <desc>Created with Sketch.</desc>
    <g id="Page-1" stroke="none" stroke-width="1" fill="none" fill-rule="evenodd">
        <g id="icons8-проверено" transform="translate(0.666667, 0.666667)" fill="#FF5656" fill-rule="nonzero">
            <path d="M9.99667,0.00666000666 C4.48817849,0.00666000666 0.00666000666,4.48817849 0.00666000666,9.99667 C0.00666000666,15.5051615 4.48817849,19.98668 9.99667,19.98668 C15.5051615,19.98668 19.98668,15.5051615 19.98668,9.99667 C19.98668,8.87179487 19.6270396,6.55011655 18.5880786,4.91175491 L17.0995671,6.35031635 C17.988678,8.11854812 17.988678,9.45021645 17.988678,9.99667 C17.988678,14.4032634 14.4032634,17.988678 9.99667,17.988678 C5.59007659,17.988678 2.004662,14.4032634 2.004662,9.99667 C2.004662,5.59007659 5.59007659,2.004662 9.99667,2.004662 C11.6280386,2.004662 13.7129537,2.38428238 15.8608059,4.55211455 L17.2793873,3.17349317 C15.041625,0.745920746 12.1794872,0.00666000666 9.99667,0.00666000666 Z M18.5980686,4.94172494 L10.1668643,12.7398648 L6.88977689,8.46486846 L5.63103563,9.64701965 L10.1668643,15.5651635 L19.2507493,6.36030636 L18.5980686,4.94172494 Z" id="Shape"></path>
        </g>
    </g>
</svg>