<svg display="none"
     xmlns="http://www.w3.org/2000/svg">
    <symbol id="edit" viewBox="0 -1 401.52289 401">
        <g>
            <path d="m370.589844 250.972656c-5.523438
             0-10 4.476563-10 10v88.789063c-.019532
             16.5625-13.4375 29.984375-30
             30h-280.589844c-16.5625-.015625-29.980469-13.4375-30-30v-260.589844c.019531-16.558594
             13.4375-29.980469 30-30h88.789062c5.523438 0 10-4.476563 10-10
             0-5.519531-4.476562-10-10-10h-88.789062c-27.601562.03125-49.96875
             22.398437-50 50v260.59375c.03125 27.601563 22.398438 49.96875 50
             50h280.589844c27.601562-.03125 49.96875-22.398437 50-50v-88.792969c0-5.523437-4.476563-10-10-10zm0 0"/>

            <path d="m376.628906 13.441406c-17.574218-17.574218-46.066406-17.574218-63.640625
            0l-178.40625 178.40625c-1.222656 1.222656-2.105469 2.738282-2.566406
            4.402344l-23.460937 84.699219c-.964844 3.472656.015624
            7.191406 2.5625 9.742187 2.550781 2.546875 6.269531 3.527344
            9.742187 2.566406l84.699219-23.464843c1.664062-.460938
            3.179687-1.34375 4.402344-2.566407l178.402343-178.410156c17.546875-17.585937
            17.546875-46.054687 0-63.640625zm-220.257812 184.90625 146.011718-146.015625
            47.089844 47.089844-146.015625 146.015625zm-9.40625 18.875 37.621094
            37.625-52.039063 14.417969zm227.257812-142.546875-10.605468 10.605469-47.09375-47.09375
            10.609374-10.605469c9.761719-9.761719 25.589844-9.761719 35.351563 0l11.738281
            11.734375c9.746094 9.773438 9.746094 25.589844 0 35.359375zm0 0"/>
        </g>
    </symbol>

    <symbol id="code" viewBox="0 0 1024 1024">
        <g>
            <path d="M938.67008 0H85.32992A85.42208 85.42208 0 0 0 0
            85.32992v853.34016A85.42208 85.42208 0 0 0 85.32992 1024h853.34016a85.42208
            85.42208 0 0 0 85.32992-85.32992V85.32992A85.42208 85.42208 0 0 0 938.67008
            0zM85.32992 56.89344h853.34016a28.4672 28.4672 0 0 1 28.44672 28.44672v199.10656H56.89344V85.32992a28.47744
            28.47744 0 0 1 28.43648-28.43648z m853.34016 910.21312H85.32992a28.47744
            28.47744 0 0 1-28.44672-28.44672V341.32992h910.22336v597.34016a28.4672 28.4672
            0 0 1-28.43648 28.43648zM210.8928 655.69792l146.91328-150.31296a28.45696 28.45696
            0 0 0-40.69376-39.7824L150.3232 636.28288a28.43648 28.43648 0 0 0 0.47104
            40.22272l170.65984 166.76864a28.43648 28.43648 0 1 0 39.75168-40.66304zM706.88768
            465.6128a28.45696 28.45696 0 0 0-40.69376 39.7824l146.91328 150.30272L662.79424
            802.6112a28.43648 28.43648 0 1 0 39.75168 40.66304l170.68032-166.77888a28.43648
            28.43648 0 0 0 0.44032-40.22272zM575.25248 480.50176a28.45696 28.45696 0 0 0-36.4544
            16.9984L431.75936 791.5008a28.43648 28.43648 0 1 0 53.44256 19.456l107.03872-294.01088a28.42624
            28.42624 0 0 0-16.98816-36.44416z" />
        </g>
    </symbol>

    <symbol id="pen" viewBox="0 0 412 412.5412">
        <g>
            <path d="m393.453125
            339.550781c-5.304687-17.050781-14.667969-32.558593-27.28125-45.199219l-265.644531-265.644531c-3.90625-3.902343-10.238282-3.902343-14.140625
            0l-1.484375 1.484375-20.992188-21.261718c-5.636718-5.710938-13.328125-8.929688-21.355468-8.929688-8.027344
            0-15.71875 3.21875-21.355469 8.929688l-12.316407 12.484374c-11.539062 11.757813-11.472656 30.605469.144532
            42.285157l21.109375 21.109375-7.765625 7.679687c-9.464844 9.359375-14.808594
            22.105469-14.84375 35.414063-.039063 13.308594 5.230468 26.082031 14.640625
            35.496094l80.035156 80.03125c3.90625 3.90625 10.238281 3.90625 14.144531 0 3.902344-3.902344
            3.902344-10.234376-.003906-14.140626l-80.03125-80.035156c-11.453125-11.449218-11.746094-29.925781-.664062-41.730468l119.71875
            119.71875 21.863281 21.867187 14.148437 14.140625 102.945313 102.945312c12.636719 12.617188 28.148437
            21.976563 45.199219 27.285157l60.027343 18.613281c3.542969 1.097656 7.40625.144531 10.03125-2.480469s3.578125-6.488281
            2.480469-10.035156zm-370.332031-304.089843 12.3125-12.484376c1.878906-1.90625 4.445312-2.976562
            7.121094-2.976562 2.675781 0 5.242187 1.070312 7.121093 2.976562l21.082031 21.355469-26.398437
            26.40625-21.191406-21.183593c-3.871094-3.890626-3.894531-10.175782-.046875-14.09375zm26.777344
            58.023437 43.558593-43.5625 106.128907 106.128906-43.5625 43.5625zm120.269531 120.269531 43.558593-43.5625
            21.214844 21.214844-43.5625 43.5625zm35.355469 35.355469 43.5625-43.5625 102.941406 102.945313c1.039062
            1.042968 2.050781 2.113281 3.035156 3.207031l-43.390625 43.390625c-1.089844-.988282-2.164063-2-3.199219-3.035156zm139.925781
            125.265625c-6.019531-1.871094-11.824219-4.367188-17.324219-7.453125l38.769531-38.769531c3.085938 5.496094
            5.585938 11.304687 7.457031 17.324218l12.988282 41.886719zm0 0"/>
        </g>
    </symbol>

    <symbol id="dart" viewBox="0 0 459.428 459.428">
        <g>
            <path d="M349.792,157.708l-19.856,19.856c9.316,17.136,14.62,36.652,14.62,57.459c0,66.232-53.924,120.156-120.156,120.156
		s-120.156-53.924-120.156-120.156c0-66.232,53.924-120.156,120.156-120.156c20.808,0,40.324,5.304,57.459,14.62l19.856-19.856
		c-22.508-13.94-48.96-21.964-77.316-21.964c-81.26,0-147.356,66.096-147.356,147.356S143.14,382.38,224.4,382.38
		s147.356-66.096,147.356-147.355C371.756,206.669,363.731,180.217,349.792,157.708z M294.644,212.925l-23.868,23.801
		c-0.884,24.887-21.283,44.742-46.375,44.742c-25.636,0-46.444-20.807-46.444-46.443c0-25.092,19.856-45.492,44.744-46.375
		l23.868-23.8c-7.004-2.244-14.416-3.468-22.167-3.468c-40.596,0-73.644,33.048-73.644,73.644s33.048,73.645,73.644,73.645
		s73.644-33.049,73.644-73.645C298.044,227.34,296.888,219.861,294.644,212.925z M416.771,119.629l-19.855,19.856
		c15.708,28.288,24.684,60.86,24.684,95.54c0,108.732-88.468,197.201-197.2,197.201S27.2,343.757,27.2,235.024
		c0-108.732,88.468-197.2,197.2-197.2c34.68,0,67.251,8.976,95.54,24.684l19.856-19.856C306.067,22.321,266.56,10.625,224.4,10.625
		C100.64,10.625,0,111.265,0,235.024s100.64,224.4,224.4,224.4s224.4-100.641,224.4-224.4
		C448.8,192.865,437.104,153.357,416.771,119.629z M387.301,120.207l-25.963-2.883L233.431,245.226
		c-5.311,5.311-13.92,5.311-19.231,0c-5.311-5.312-5.311-13.92,0-19.231L342.101,98.093l-2.883-25.962l72.128-72.128l9.615,38.468
		l38.467,9.615L387.301,120.207z"/>
        </g>
    </symbol>

    <symbol id="megaphone" viewBox="0 0 434.407 434.407">
        <g>
            <path d="M190.062,62.864c-4.165-3.725-10.464-3.725-14.629,0c-4.047,4.24-4.047,10.911,0,15.151l11.494,11.494L51.613,298.489
				L10.862,339.24c-4.04,3.706-4.31,9.986-0.603,14.025c0.192,0.21,0.394,0.411,0.603,0.603l77.322,77.322
				c3.706,4.04,9.986,4.31,14.025,0.603c0.21-0.192,0.411-0.394,0.603-0.603l41.273-40.751l31.869-20.376l44.408,44.408
				c3.706,4.04,9.986,4.31,14.025,0.603c0.21-0.192,0.411-0.394,0.603-0.603l80.457-80.457c1.969-1.929,3.095-4.558,3.135-7.314
				c0.104-2.937-1.034-5.781-3.135-7.837l-24.033-24.033l61.127-39.184l11.494,11.494c2.261,1.696,5.011,2.612,7.837,2.612
				c2.653-0.075,5.214-0.989,7.314-2.612c3.585-4.414,3.585-10.737,0-15.151L190.062,62.864z M95.499,409.248l-62.694-62.694
				l27.167-27.167l62.694,62.694L95.499,409.248z M293.507,326.701l-65.829,65.306l-33.959-33.959l79.935-51.2L293.507,326.701z
				 M138.862,368.497l-65.306-65.306L202.078,104.66l135.314,135.837L138.862,368.497z"/>
            <path d="M301.866,127.126c2.055,2.1,4.9,3.238,7.837,3.135c2.756-0.039,5.385-1.166,7.314-3.135l59.037-59.037
				c4.047-4.24,4.047-10.911,0-15.151c-3.706-4.04-9.986-4.31-14.025-0.603c-0.21,0.192-0.411,0.394-0.603,0.603l-59.559,59.037
				C298.281,116.389,298.281,122.712,301.866,127.126z"/>
            <path d="M268.429,91.077h3.657c4.366-0.087,8.264-2.754,9.927-6.792l26.122-70.008c1.8-5.472-0.938-11.404-6.269-13.584
				c-5.39-2.063-11.431,0.635-13.493,6.024c-0.031,0.081-0.061,0.163-0.09,0.245l-25.6,70.531
				C260.53,82.831,263.099,88.904,268.429,91.077z"/>
            <path d="M426.209,125.558c-1.927-5.44-7.899-8.287-13.339-6.36c-0.082,0.029-0.164,0.059-0.245,0.09l-70.008,26.122
				c-5.229,1.648-8.132,7.223-6.484,12.451c0.065,0.206,0.136,0.409,0.214,0.61c1.364,4.339,5.378,7.296,9.927,7.314l3.657-1.045
				l70.008-25.6C425.271,136.962,428.009,131.03,426.209,125.558z"/>
        </g>
    </symbol>

    <symbol id="camera" viewBox="0 -87 472 472">
        <g>
            <path d="m467.101562 26.527344c-3.039062-1.800782-6.796874-1.871094-9.898437-.179688l-108.296875
            59.132813v-35.480469c-.03125-27.601562-22.398438-49.96875-50-50h-248.90625c-27.601562.03125-49.96875
            22.398438-50 50v197.421875c.03125 27.601563 22.398438 49.96875 50 50h248.90625c27.601562-.03125
            49.96875-22.398437 50-50v-34.835937l108.300781 59.132812c3.097657 1.691406 6.859375 1.625 9.894531-.175781
            3.039063-1.804688 4.898438-5.074219 4.898438-8.601563v-227.816406c0-3.53125-1.863281-6.796875-4.898438-8.597656zm-138.203124
            220.898437c-.015626 16.5625-13.4375
            29.980469-30 30h-248.898438c-16.5625-.019531-29.980469-13.4375-30-30v-197.425781c.019531-16.558594
            13.4375-29.980469 30-30h248.90625c16.558594.019531 29.980469 13.441406 30
            30zm123.101562-1.335937-103.09375-56.289063v-81.535156l103.09375-56.285156zm0 0"/>
        </g>
    </symbol>

    <symbol id="suitcase" viewBox="0 -24 480 480">
        <g>
            <path d="m456 72h-104v-32c-.027344-22.082031-17.917969-39.9726562-40-40h-144c-22.082031.0273438-39.972656
            17.917969-40 40v32h-104c-13.253906 0-24 10.746094-24 24v178.078125c.0507812 10.148437 6.445312 19.175781
            16 22.585937v111.335938c0 13.253906 10.746094 24 24 24h400c13.253906 0 24-10.746094
            24-24v-111.328125c9.554688-3.414063
            15.953125-12.445313 16-22.59375v-178.078125c0-13.253906-10.746094-24-24-24zm-312-32c0-13.253906
            10.746094-24 24-24h144c13.253906 0 24 10.746094 24 24v32h-16v-32c0-4.417969-3.582031-8-8-8h-144c-4.417969
             0-8 3.582031-8 8v32h-16zm160 32h-128v-24h128zm144 336c0 4.417969-3.582031 8-8 8h-400c-4.417969
             0-8-3.582031-8-8v-108.585938l176 24.273438v20.3125c0 13.253906 10.746094 24 24 24h16c13.253906
             0 24-10.746094 24-24v-20.3125l176-24.273438zm-192-64c0 4.417969-3.582031 8-8 8h-16c-4.417969
             0-8-3.582031-8-8v-48c0-4.417969 3.582031-8 8-8h16c4.417969 0 8 3.582031 8 8zm208-69.921875c.003906
             3.988281-2.929688 7.371094-6.878906 7.929687l-2.21875.304688-182.902344
             25.222656v-11.535156c0-13.253906-10.746094-24-24-24h-16c-13.253906 0-24 10.746094-24
             24v11.535156l-185.113281-25.527344c-3.949219-.554687-6.890625-3.9375-6.886719-7.929687v-178.078125c0-4.417969
             3.582031-8 8-8h432c4.417969 0 8 3.582031 8 8zm0 0"/>
        </g>
    </symbol>

    <symbol id="cup" viewBox="0 0 390.762 390.762">
        <g>
            <path d="M384.425,149.124c-0.594-2.766-3.038-4.741-5.866-4.741H70.514c-2.829,0-5.272,1.975-5.866,4.741
		c-0.976,4.544-1.828,9.133-2.579,13.751c-8.9,1.16-17.295,3.926-25.007,8.275C17.68,182.124,4.919,201.48,1.13,225.652
		c-3.518,22.449,1.239,46.646,13.396,68.134c17.681,31.25,48.795,51.711,79.819,52.727c9.2,15.328,19.924,29.072,31.836,40.66
		c1.12,1.089,2.622,1.699,4.184,1.699h188.344c1.563,0,3.064-0.61,4.184-1.699c20.631-20.071,37.729-46.578,49.444-76.655
		c12.054-30.946,18.426-65.85,18.426-100.936C390.762,189.05,388.63,168.709,384.425,149.124z M72.37,298.378
		c-8.995-5.755-17.065-14.3-22.791-24.422c-7.703-13.611-10.776-28.55-8.653-42.069c1.84-11.775,7.513-20.893,15.989-25.682
		c0.473-0.269,0.962-0.506,1.45-0.747c-0.019,1.374-0.054,2.747-0.054,4.123C58.311,240.152,63.152,270.582,72.37,298.378z
		 M24.97,287.877c-10.829-19.142-15.085-40.581-11.984-60.366c3.21-20.479,13.86-36.786,29.979-45.913
		c5.399-3.045,11.223-5.146,17.375-6.301c-0.667,5.659-1.175,11.356-1.51,17.083c-2.733,0.848-5.357,1.979-7.834,3.387
		c-11.721,6.622-19.508,18.792-21.926,34.264c-2.541,16.179,1.034,33.878,10.065,49.835c9.339,16.51,23.558,29.092,39.327,34.929
		c2.689,6.539,5.634,12.896,8.816,19.046C62.897,330.219,39.178,312.987,24.97,287.877z M316.246,376.872H132.827
		C93.64,337.627,70.311,275.31,70.311,209.582c0-18.033,1.714-35.905,5.097-53.198h78.365v58.496h-22.499c-3.313,0-6,2.687-6,6
		v71.997c0,3.313,2.687,6,6,6h56.997c3.313,0,6-2.687,6-6V220.88c0-3.313-2.687-6-6-6h-22.499v-58.496h207.892
		c3.383,17.293,5.097,35.165,5.097,53.198C378.762,275.31,355.433,337.627,316.246,376.872z M182.272,226.88v59.997h-44.997V226.88
		H182.272z"/>
            <path d="M168.587,121.885c0,3.313,2.687,6,6,6s6-2.687,6-6c0-8.135,1.839-11.967,3.969-16.404
		c2.415-5.03,5.151-10.731,5.151-21.596s-2.736-16.566-5.151-21.596c-2.129-4.437-3.969-8.269-3.969-16.404
		c0-8.133,1.839-11.964,3.969-16.4c2.415-5.029,5.151-10.73,5.151-21.594c0-3.313-2.687-6-6-6s-6,2.687-6,6
		c0,8.133-1.839,11.965-3.969,16.401c-2.415,5.029-5.151,10.73-5.151,21.594c0,10.865,2.736,16.566,5.15,21.596
		c2.13,4.437,3.969,8.269,3.969,16.404s-1.839,11.967-3.969,16.404C171.323,105.319,168.587,111.02,168.587,121.885z"/>
            <path d="M213.977,121.885c0,3.313,2.687,6,6,6s6-2.687,6-6c0-8.135,1.839-11.967,3.969-16.404
		c2.415-5.03,5.151-10.731,5.151-21.596s-2.736-16.566-5.151-21.596c-2.129-4.437-3.969-8.269-3.969-16.404
		c0-8.133,1.839-11.964,3.969-16.4c2.415-5.029,5.151-10.73,5.151-21.594c0-3.313-2.687-6-6-6s-6,2.687-6,6
		c0,8.133-1.839,11.965-3.969,16.401c-2.415,5.029-5.151,10.73-5.151,21.594c0,10.865,2.736,16.566,5.15,21.596
		c2.13,4.437,3.969,8.269,3.969,16.404s-1.839,11.967-3.969,16.404C216.713,105.319,213.977,111.02,213.977,121.885z"/>
            <path d="M259.367,121.885c0,3.313,2.687,6,6,6s6-2.687,6-6c0-8.135,1.839-11.967,3.969-16.404c2.414-5.03,5.15-10.731,5.15-21.596
		s-2.736-16.566-5.15-21.596c-2.13-4.437-3.969-8.269-3.969-16.404c0-8.133,1.839-11.964,3.969-16.4
		c2.415-5.029,5.151-10.73,5.151-21.594c0-3.313-2.687-6-6-6s-6,2.687-6,6c0,8.133-1.839,11.965-3.969,16.401
		c-2.415,5.029-5.151,10.73-5.151,21.594c0,10.865,2.736,16.566,5.151,21.596c2.129,4.437,3.969,8.269,3.969,16.404
		s-1.839,11.967-3.969,16.404C262.103,105.319,259.367,111.02,259.367,121.885z"/>
        </g>
    </symbol>

    <symbol id="shield" viewBox="0 0 317.855 317.855">
        <g>
            <path d="M158.929,317.855c-1.029,0-2.059-0.159-3.051-0.477c-33.344-10.681-61.732-31.168-84.377-60.891
		c-17.828-23.401-32.103-52.526-42.426-86.566C11.661,112.506,11.461,61.358,11.461,59.209c0-5.15,3.912-9.459,9.039-9.954
		c0.772-0.075,78.438-8.048,132.553-47.347c3.504-2.546,8.249-2.543,11.753,0.001C218.906,41.207,296.582,49.18,297.36,49.256
		c5.123,0.5,9.034,4.807,9.034,9.953c0,2.149-0.2,53.297-17.613,110.713c-10.324,34.04-24.598,63.165-42.426,86.566
		c-22.644,29.723-51.032,50.21-84.376,60.891C160.987,317.696,159.958,317.855,158.929,317.855z M31.748,67.982
		c0.831,16.784,4.062,55.438,16.604,96.591c21.405,70.227,58.601,114.87,110.576,132.746
		c52.096-17.916,89.335-62.711,110.713-133.202c12.457-41.074,15.653-79.434,16.472-96.134
		c-22.404-3.269-80.438-14.332-127.186-45.785C112.175,53.648,54.153,64.713,31.748,67.982z"/>
            <path d="M153.582,207.625c-2.372,0-4.68-0.844-6.499-2.4l-36.163-30.926c-4.197-3.589-4.69-9.901-1.101-14.099
		c3.588-4.198,9.901-4.692,14.099-1.101l28.124,24.051l55.743-73.118c3.348-4.392,9.622-5.24,14.015-1.89
		c4.393,3.348,5.238,9.623,1.89,14.015l-62.155,81.53c-1.667,2.187-4.16,3.591-6.895,3.882
		C154.287,207.606,153.934,207.625,153.582,207.625z"/>
        </g>
    </symbol>

    <symbol id="tag"  viewBox="0 0 463.552 463.552">
        <g>
            <path d="M445.752,256.346l-179.9-180c-9.5-9.5-22.2-14.8-35.6-14.8c-1.1,0-2.2,0-3.3,0.1l-130.1,8.6c-14.1,0.9-25.5,12.3-26.4,26.4
		l-3.1,46.2c-6.6-3.8-12.9-8.6-18.6-14.3c-13.9-13.9-22.5-31.2-24.3-48.8c-1.7-16.7,3.1-31.6,13.5-42c22.1-22.1,62.8-17.2,90.9,10.8
		c4.7,4.7,12.3,4.7,17,0s4.7-12.3,0-17c-37.6-37.3-93.6-42.1-125-10.7c-15.6,15.6-22.8,37.3-20.4,61.4c2.3,23.1,13.4,45.6,31.2,63.4
		c10,10,21.6,17.9,33.9,23.3l-3.8,57.9c-1,14.5,4.4,28.7,14.7,39l180,180c11.4,11.4,26.5,17.6,42.6,17.6l0,0
		c16.1,0,31.2-6.3,42.6-17.6l104.3-104.3c11.4-11.4,17.6-26.5,17.6-42.6C463.452,282.746,457.152,267.646,445.752,256.346z
		 M428.852,324.446l-104.4,104.4c-6.8,6.8-15.9,10.6-25.6,10.6l0,0c-9.7,0-18.8-3.8-25.6-10.6l-180-180c-5.4-5.4-8.2-12.8-7.7-20.4
		l3.5-52.4c2,0.3,4,0.6,6,0.8c3,0.3,6,0.5,8.9,0.5c20.5,0,38.8-7.2,52.4-20.8c4.7-4.7,4.7-12.3,0-17s-12.3-4.7-17,0
		c-10.4,10.4-25.3,15.2-42,13.5c-2.3-0.2-4.5-0.6-6.7-1l3.6-53.6c0.1-2.2,1.9-3.9,4.1-4.1l130.1-8.6c0.6,0,1.2-0.1,1.8-0.1
		c7,0,13.8,2.8,18.7,7.7l179.9,179.9c6.8,6.8,10.6,15.9,10.6,25.6C439.452,308.546,435.652,317.646,428.852,324.446z"/>
        </g>
    </symbol>

    <symbol id="advisor"  viewBox="-1 0 484 484">
        <g>
            <path d="m313 476.753906v-80.707031c-.066406-33.085937-26.832031-59.910156-59.914062-60.046875h-33.085938v-27.109375c1.707031-1.390625 3.285156-2.933594 4.714844-4.609375 18.167968-18.546875 28.328125-43.492188 28.285156-69.457031v-93.347657c8-4.757812 13.742188-11.640624 18.382812-20.363281 5.828126-10.945312 9.121094-24.632812 9.121094-38.539062.019532-2.039063-.863281-3.984375-2.410156-5.316407-1.542969-1.332031-3.597656-1.917968-5.613281-1.597656l-64.835938 10.195313c-11.238281 1.78125-22.730469 1.160156-33.710937-1.824219l-29.691406-8.019531c-10.039063-2.753907-20.78125-.632813-29.019532 5.722656-2.71875 2.058594-5.109375 4.507813-7.097656 7.273437-30.320312 17.253907-49.070312 49.4375-49.125 84.324219v61.492188c.003906 25.980469 10.203125 50.921875 28.40625 69.457031 1.480469 1.519531 3.59375 2.980469 4.59375 4.390625v27.328125h-32.570312c-32.984376 0-59.429688 27.0625-59.429688 60.046875v80.707031c0 3.867188 2.75 7.246094 6.617188 7.246094h299.28125c3.933593-.109375 7.074218-3.3125 7.101562-7.246094zm-189.328125-383.898437c3.378906-2.597657 7.515625-4.007813 11.777344-4.011719 1.730469.003906 3.457031.230469 5.128906.683594l29.699219 8.023437c12.882812 3.5 26.359375 4.226563 39.542968 2.136719l56.371094-8.863281c-2.453125 25.152343-16.015625 38.5-27.960937 42.488281-7.277344 1.101562-84.113281 12.605469-119.253907 12.605469-1.621093 0-2.945312-1.296875-2.976562-2.917969v-34.738281c.003906-6.054688 2.839844-11.757813 7.671875-15.410157zm-21.671875 17.496093v32.648438c.003906 8.378906 6.144531 15.492188 14.433594 16.71875-13.773438 10.691406-28.433594 15.582031-43.433594 14.582031v-.96875c.105469-24.199219 10.679688-47.167969 29-62.980469zm-29 124.472657v-46.507813c1 .066406 2.601562.109375 3.835938.109375 26.601562 0 47.210937-15 60.886718-29.222656 37.71875-2.433594 91.277344-10.367187 101.277344-11.898437v87.519531c.066406 22.304687-8.636719 43.742187-24.230469 59.691406-15.789062 16.214844-36.546875 25.144531-58.597656 25.144531-22.179687-.046875-43.382813-9.125-58.726563-25.144531-15.652343-15.925781-24.429687-37.359375-24.445312-59.691406zm83.121094 98.835937c17.628906.011719 34.910156-4.917968 49.878906-14.234375v20.480469c-29.175781 23.527344-70.808594 23.542969-100 .03125v-20.664062c15.019531 9.417968 32.390625 14.40625 50.121094 14.386718zm142.878906 136.339844h-285v-73.953125c0-25.261719 20.167969-46.046875 45.429688-46.046875h37.121093c34.417969 29 84.722657 29 119.140625 0h37.394532c25.351562.128906 45.855468 20.691406 45.914062 46.046875zm0 0"/>
            <path d="m121.660156 246.757812c13.933594-.015624 25.222656-11.304687 25.238282-25.238281
            0-3.863281-3.132813-7-7-7-3.863282 0-7 3.136719-7 7 0 6.207031-5.027344 11.238281-11.234376
            11.238281-6.203124 0-11.234374-5.03125-11.234374-11.238281 0-3.863281-3.132813-7-7-7-3.867188
            0-7 3.136719-7 7 .015624 13.929688 11.300781 25.21875 25.230468 25.238281zm0 0"/>
            <path d="m190.851562 246.757812c13.929688-.019531 25.21875-11.304687 25.234376-25.238281
            0-3.863281-3.132813-7-7-7-3.863282 0-7 3.136719-7 7 0 6.207031-5.027344 11.238281-11.234376
            11.238281-6.203124 0-11.234374-5.03125-11.234374-11.238281 0-3.863281-3.132813-7-7-7-3.867188
            0-7 3.136719-7 7 .015624 13.933594 11.304687 25.222657 25.234374 25.238281zm0 0"/>
            <path d="m475.382812 0h-177.523437c-3.886719.128906-6.945313 3.359375-6.859375
            7.246094v131.980468c-.023438 1.816407.695312 3.566407 1.988281 4.84375 1.292969 1.28125 3.050781
            1.976563 4.871094 1.929688h26.140625v31.554688c.039062 3.878906 3.199219 7.003906 7.078125
            7 1.484375-.042969 2.921875-.542969 4.109375-1.433594l51.363281-37.121094h88.832031c1.792969.035156
            3.523438-.671875 4.777344-1.953125 1.25-1.285156 1.917969-3.027344
            1.839844-4.820313v-131.980468c0-3.867188-2.75-7.246094-6.617188-7.246094zm-7.382812
            132h-83.707031c-1.496094.039062-2.945313.539062-4.148438 1.433594l-42.144531
            30.449218v-24.65625c.066406-3.890624-3.003906-7.109374-6.894531-7.226562h-26.105469v-118h163zm0 0"/>
            <path d="m328.742188 50h67.527343c3.863281 0 7-3.132812 7-7s-3.136719-7-7-7h-67.527343c-3.867188
            0-7 3.132812-7 7s3.132812 7 7 7zm0 0"/>
            <path d="m328.742188 80h117.527343c3.863281 0 7-3.132812 7-7s-3.136719-7-7-7h-117.527343c-3.867188
            0-7 3.132812-7 7s3.132812 7 7 7zm0 0"/>
            <path d="m328.742188 110h117.527343c3.863281 0 7-3.132812 7-7s-3.136719-7-7-7h-117.527343c-3.867188
            0-7 3.132812-7 7s3.132812 7 7 7zm0 0"/>
        </g>
    </symbol>

    <symbol id="star1"  viewBox="0 0 488 466">
        <g>
            <path d="M486.554,175.811 C484.954,170.911 480.754,167.411 475.654,166.611 L323.654,145.011 L255.254,7.511 C252.954,2.911 248.254,0.011 243.154,0.011 L243.154,0.011 C238.054,0.011 233.354,2.911 231.054,7.611 L163.554,145.511 L11.554,168.111 C6.454,168.911 2.254,172.411 0.654,177.311 C-0.946,182.211 0.454,187.611 4.154,191.111 L114.454,298.011 L88.954,449.411 C88.054,454.511 90.154,459.611 94.354,462.611 C96.654,464.311 99.454,465.211 102.254,465.211 C104.454,465.211 106.554,464.711 108.554,463.611 L244.254,391.711 L380.354,462.811 C382.354,463.811 384.454,464.311 386.554,464.311 L386.554,464.311 C393.954,464.311 400.054,458.211 400.054,450.811 C400.054,449.711 399.954,448.711 399.654,447.711 L373.354,297.211 L482.954,189.711 C486.854,186.111 488.154,180.711 486.554,175.811 Z"/>
            <path d="M349.554,282.911 C346.354,286.011 344.954,290.511 345.754,294.911 L368.654,426.211 L250.454,364.511 C246.554,362.411 241.854,362.511 237.854,364.511 L120.054,426.911 L142.154,295.411 C142.854,291.011 141.454,286.611 138.254,283.511 L42.654,190.711 L174.554,171.111 C178.954,170.411 182.754,167.711 184.654,163.711 L243.254,44.011 L302.654,163.411 C304.654,167.411 308.454,170.111 312.854,170.811 L444.854,189.611 L349.554,282.911 Z"/>
        </g>
    </symbol>

    <symbol id="star"  viewBox="0 0 19.481 19.481">
        <g>
            <path d="m10.201,.758l2.478,5.865 6.344,.545c0.44,0.038
            0.619,0.587 0.285,0.876l-4.812,4.169
            1.442,6.202c0.1,0.431-0.367,0.77-0.745,0.541l-5.452-3.288-5.452,3.288c-0.379,0.228-0.845-0.111-0.745-0.541l1.442-6.202-4.813-4.17c-0.334-0.289-0.156-0.838
            0.285-0.876l6.344-.545 2.478-5.864c0.172-0.408 0.749-0.408 0.921,0z"/>
        </g>
    </symbol>

    <symbol id="like"  viewBox="0 0 478.2 478.2">
        <g>
            <path d="M457.575,325.1c9.8-12.5,14.5-25.9,13.9-39.7c-0.6-15.2-7.4-27.1-13-34.4c6.5-16.2,9-41.7-12.7-61.5
		c-15.9-14.5-42.9-21-80.3-19.2c-26.3,1.2-48.3,6.1-49.2,6.3h-0.1c-5,0.9-10.3,2-15.7,3.2c-0.4-6.4,0.7-22.3,12.5-58.1
		c14-42.6,13.2-75.2-2.6-97c-16.6-22.9-43.1-24.7-50.9-24.7c-7.5,0-14.4,3.1-19.3,8.8c-11.1,12.9-9.8,36.7-8.4,47.7
		c-13.2,35.4-50.2,122.2-81.5,146.3c-0.6,0.4-1.1,0.9-1.6,1.4c-9.2,9.7-15.4,20.2-19.6,29.4c-5.9-3.2-12.6-5-19.8-5h-61
		c-23,0-41.6,18.7-41.6,41.6v162.5c0,23,18.7,41.6,41.6,41.6h61c8.9,0,17.2-2.8,24-7.6l23.5,2.8c3.6,0.5,67.6,8.6,133.3,7.3
		c11.9,0.9,23.1,1.4,33.5,1.4c17.9,0,33.5-1.4,46.5-4.2c30.6-6.5,51.5-19.5,62.1-38.6c8.1-14.6,8.1-29.1,6.8-38.3
		c19.9-18,23.4-37.9,22.7-51.9C461.275,337.1,459.475,330.2,457.575,325.1z M48.275,447.3c-8.1,0-14.6-6.6-14.6-14.6V270.1
		c0-8.1,6.6-14.6,14.6-14.6h61c8.1,0,14.6,6.6,14.6,14.6v162.5c0,8.1-6.6,14.6-14.6,14.6h-61V447.3z M431.975,313.4
		c-4.2,4.4-5,11.1-1.8,16.3c0,0.1,4.1,7.1,4.6,16.7c0.7,13.1-5.6,24.7-18.8,34.6c-4.7,3.6-6.6,9.8-4.6,15.4c0,0.1,4.3,13.3-2.7,25.8
		c-6.7,12-21.6,20.6-44.2,25.4c-18.1,3.9-42.7,4.6-72.9,2.2c-0.4,0-0.9,0-1.4,0c-64.3,1.4-129.3-7-130-7.1h-0.1l-10.1-1.2
		c0.6-2.8,0.9-5.8,0.9-8.8V270.1c0-4.3-0.7-8.5-1.9-12.4c1.8-6.7,6.8-21.6,18.6-34.3c44.9-35.6,88.8-155.7,90.7-160.9
		c0.8-2.1,1-4.4,0.6-6.7c-1.7-11.2-1.1-24.9,1.3-29c5.3,0.1,19.6,1.6,28.2,13.5c10.2,14.1,9.8,39.3-1.2,72.7
		c-16.8,50.9-18.2,77.7-4.9,89.5c6.6,5.9,15.4,6.2,21.8,3.9c6.1-1.4,11.9-2.6,17.4-3.5c0.4-0.1,0.9-0.2,1.3-0.3
		c30.7-6.7,85.7-10.8,104.8,6.6c16.2,14.8,4.7,34.4,3.4,36.5c-3.7,5.6-2.6,12.9,2.4,17.4c0.1,0.1,10.6,10,11.1,23.3
		C444.875,295.3,440.675,304.4,431.975,313.4z"/>
        </g>
    </symbol>

    <symbol id="vk"  viewBox="0 0 96.496 96.496">
        <g>
            <path d="M92.499,65.178c-2.873-3.446-6.254-6.387-9.453-9.51c-2.886-2.815-3.068-4.448-0.748-7.697
		c2.532-3.546,5.255-6.956,7.81-10.486c2.385-3.299,4.823-6.589,6.078-10.539c0.796-2.513,0.092-3.623-2.485-4.063
		c-0.444-0.077-0.903-0.081-1.355-0.081l-15.289-0.018c-1.883-0.028-2.924,0.793-3.59,2.462c-0.899,2.256-1.826,4.51-2.897,6.687
		c-2.43,4.936-5.144,9.707-8.949,13.747c-0.839,0.891-1.767,2.017-3.169,1.553c-1.754-0.64-2.271-3.53-2.242-4.507l-0.015-17.647
		c-0.34-2.521-0.899-3.645-3.402-4.135l-15.882,0.003c-2.12,0-3.183,0.819-4.315,2.145c-0.653,0.766-0.85,1.263,0.492,1.517
		c2.636,0.5,4.121,2.206,4.515,4.849c0.632,4.223,0.588,8.463,0.224,12.703c-0.107,1.238-0.32,2.473-0.811,3.629
		c-0.768,1.817-2.008,2.187-3.637,1.069c-1.475-1.012-2.511-2.44-3.525-3.874c-3.809-5.382-6.848-11.186-9.326-17.285
		c-0.716-1.762-1.951-2.83-3.818-2.859c-4.587-0.073-9.175-0.085-13.762,0.004c-2.76,0.052-3.583,1.392-2.459,3.894
		c4.996,11.113,10.557,21.917,17.816,31.759c3.727,5.051,8.006,9.51,13.534,12.67c6.265,3.582,13.009,4.66,20.112,4.328
		c3.326-0.156,4.325-1.021,4.479-4.336c0.104-2.268,0.361-4.523,1.48-6.561c1.098-2,2.761-2.381,4.678-1.137
		c0.959,0.623,1.767,1.416,2.53,2.252c1.872,2.048,3.677,4.158,5.62,6.137c2.437,2.48,5.324,3.945,8.954,3.646L93.744,75.5
		c2.264-0.148,3.438-2.924,2.138-5.451C94.969,68.279,93.771,66.703,92.499,65.178z"/>
        </g>
    </symbol>

    <symbol id="fb"  viewBox="0 0 96.124 96.123">
        <g>
            <path d="M72.089,0.02L59.624,0C45.62,0,36.57,9.285,36.57,23.656v10.907H24.037c-1.083,0-1.96,0.878-1.96,1.961v15.803
		c0,1.083,0.878,1.96,1.96,1.96h12.533v39.876c0,1.083,0.877,1.96,1.96,1.96h16.352c1.083,0,1.96-0.878,1.96-1.96V54.287h14.654
		c1.083,0,1.96-0.877,1.96-1.96l0.006-15.803c0-0.52-0.207-1.018-0.574-1.386c-0.367-0.368-0.867-0.575-1.387-0.575H56.842v-9.246
		c0-4.444,1.059-6.7,6.848-6.7l8.397-0.003c1.082,0,1.959-0.878,1.959-1.96V1.98C74.046,0.899,73.17,0.022,72.089,0.02z"/>
        </g>
    </symbol>

    <symbol id="inst"  viewBox="0 0 512 512">

        <g>
            <path d="M352,0H160C71.648,0,0,71.648,0,160v192c0,88.352,71.648,160,160,160h192c88.352,0,160-71.648,160-160V160
			C512,71.648,440.352,0,352,0z M464,352c0,61.76-50.24,112-112,112H160c-61.76,0-112-50.24-112-112V160C48,98.24,98.24,48,160,48
			h192c61.76,0,112,50.24,112,112V352z"/>

            <path d="M256,128c-70.688,0-128,57.312-128,128s57.312,128,128,128s128-57.312,128-128S326.688,128,256,128z M256,336
			c-44.096,0-80-35.904-80-80c0-44.128,35.904-80,80-80s80,35.872,80,80C336,300.096,300.096,336,256,336z"/>

            <circle cx="393.6" cy="118.4" r="17.056"/>
        </g>
    </symbol>

    <symbol id="tg"  viewBox="0 0 189.473 189.473">
        <g>
            <path d="M152.531,179.476c-1.48,0-2.95-0.438-4.211-1.293l-47.641-32.316l-25.552,18.386c-2.004,1.441-4.587,1.804-6.914,0.972
		c-2.324-0.834-4.089-2.759-4.719-5.146l-12.83-48.622L4.821,93.928c-2.886-1.104-4.8-3.865-4.821-6.955
		c-0.021-3.09,1.855-5.877,4.727-7.02l174.312-69.36c0.791-0.336,1.628-0.53,2.472-0.582c0.302-0.018,0.605-0.018,0.906-0.001
		c1.748,0.104,3.465,0.816,4.805,2.13c0.139,0.136,0.271,0.275,0.396,0.42c1.11,1.268,1.72,2.814,1.835,4.389
		c0.028,0.396,0.026,0.797-0.009,1.198c-0.024,0.286-0.065,0.571-0.123,0.854L159.898,173.38c-0.473,2.48-2.161,4.556-4.493,5.523
		C154.48,179.287,153.503,179.476,152.531,179.476z M104.862,130.579l42.437,28.785L170.193,39.24l-82.687,79.566l17.156,11.638
		C104.731,130.487,104.797,130.533,104.862,130.579z M69.535,124.178l5.682,21.53l12.242-8.809l-16.03-10.874
		C70.684,125.521,70.046,124.893,69.535,124.178z M28.136,86.782l31.478,12.035c2.255,0.862,3.957,2.758,4.573,5.092l3.992,15.129
		c0.183-1.745,0.974-3.387,2.259-4.624L149.227,38.6L28.136,86.782z"/>
        </g>
    </symbol>

    <symbol id="stz"  viewBox="0 0 487.222 487.222">
        <g>
            <path d="M486.554,186.811c-1.6-4.9-5.8-8.4-10.9-9.2l-152-21.6l-68.4-137.5c-2.3-4.6-7-7.5-12.1-7.5l0,0c-5.1,0-9.8,2.9-12.1,7.6
		l-67.5,137.9l-152,22.6c-5.1,0.8-9.3,4.3-10.9,9.2s-0.2,10.3,3.5,13.8l110.3,106.9l-25.5,151.4c-0.9,5.1,1.2,10.2,5.4,13.2
		c2.3,1.7,5.1,2.6,7.9,2.6c2.2,0,4.3-0.5,6.3-1.6l135.7-71.9l136.1,71.1c2,1,4.1,1.5,6.2,1.5l0,0c7.4,0,13.5-6.1,13.5-13.5
		c0-1.1-0.1-2.1-0.4-3.1l-26.3-150.5l109.6-107.5C486.854,197.111,488.154,191.711,486.554,186.811z M349.554,293.911
		c-3.2,3.1-4.6,7.6-3.8,12l22.9,131.3l-118.2-61.7c-3.9-2.1-8.6-2-12.6,0l-117.8,62.4l22.1-131.5c0.7-4.4-0.7-8.8-3.9-11.9
		l-95.6-92.8l131.9-19.6c4.4-0.7,8.2-3.4,10.1-7.4l58.6-119.7l59.4,119.4c2,4,5.8,6.7,10.2,7.4l132,18.8L349.554,293.911z"/>
        </g>
    </symbol>

    <symbol id="speech-bubbles"  viewBox="0 0 393.222 393.222">
        <g>
            <path d="M360.283,117.049h-72.777v-40.94c0-18.165-14.774-32.944-32.936-32.944H32.936C14.774,43.165,0,57.944,0,76.109v126.252
	c0,18.161,14.774,32.936,32.936,32.936h16.87v33.378c0,3.06,1.858,5.813,4.696,6.956c0.908,0.366,1.859,0.544,2.802,0.544
	c2,0,3.963-0.801,5.405-2.299l37.138-38.58h5.867v40.944c0,18.163,14.776,32.939,32.938,32.939h154.723l37.141,38.578
	c1.442,1.498,3.405,2.299,5.405,2.299c0.942,0,1.894-0.178,2.803-0.544c2.837-1.144,4.695-3.896,4.695-6.956v-33.376h16.864
	c18.162,0,32.938-14.776,32.938-32.939V149.988C393.222,131.825,378.445,117.049,360.283,117.049z M105.714,149.988v70.309h-9.058
	c-2.039,0-3.989,0.83-5.403,2.299L64.806,250.07v-22.273c0-4.142-3.357-7.5-7.5-7.5h-24.37c-9.89,0-17.936-8.046-17.936-17.936
	V76.109c0-9.894,8.046-17.944,17.936-17.944H254.57c9.89,0,17.936,8.05,17.936,17.944v40.94H138.652
	C120.49,117.049,105.714,131.825,105.714,149.988z M378.222,276.24c0,9.892-8.047,17.939-17.938,17.939h-24.364
	c-4.143,0-7.5,3.358-7.5,7.5v22.272l-26.45-27.474c-1.414-1.469-3.365-2.298-5.403-2.298H138.652
	c-9.892,0-17.938-8.047-17.938-17.939V149.988c0-9.892,8.047-17.939,17.938-17.939h221.631c9.892,0,17.938,8.047,17.938,17.939
	V276.24z"/>
        </g>
    </symbol>

    <symbol id="notification"  viewBox="0 0 512 512">
        <g>
            <g>
                <path d="M467.819,431.851l-36.651-61.056c-16.896-28.181-25.835-60.437-25.835-93.312V224
			c0-82.325-67.008-149.333-149.333-149.333S106.667,141.675,106.667,224v53.483c0,32.875-8.939,65.131-25.835,93.312
			l-36.651,61.056c-1.984,3.285-2.027,7.403-0.149,10.731c1.899,3.349,5.461,5.419,9.301,5.419h405.333
			c3.84,0,7.403-2.069,9.301-5.419C469.845,439.253,469.803,435.136,467.819,431.851z M72.171,426.667l26.944-44.907
			C118.016,350.272,128,314.219,128,277.483V224c0-70.592,57.408-128,128-128s128,57.408,128,128v53.483
			c0,36.736,9.984,72.789,28.864,104.277l26.965,44.907H72.171z"/>
            </g>
        </g>
        <g>
            <g>
                <path d="M256,0c-23.531,0-42.667,19.136-42.667,42.667v42.667C213.333,91.221,218.112,96,224,96s10.667-4.779,10.667-10.667
			V42.667c0-11.776,9.557-21.333,21.333-21.333s21.333,9.557,21.333,21.333v42.667C277.333,91.221,282.112,96,288,96
			s10.667-4.779,10.667-10.667V42.667C298.667,19.136,279.531,0,256,0z"/>
            </g>
        </g>
        <g>
            <g>
                <path d="M302.165,431.936c-3.008-5.077-9.515-6.741-14.613-3.819c-5.099,2.987-6.805,9.536-3.819,14.613
			c2.773,4.715,4.288,10.368,4.288,15.936c0,17.643-14.357,32-32,32c-17.643,0-32-14.357-32-32c0-5.568,1.515-11.221,4.288-15.936
			c2.965-5.099,1.259-11.627-3.819-14.613c-5.141-2.923-11.627-1.259-14.613,3.819c-4.715,8.064-7.211,17.301-7.211,26.731
			C202.667,488.085,226.581,512,256,512s53.333-23.915,53.376-53.333C309.376,449.237,306.88,440,302.165,431.936z"/>
            </g>
        </g>
    </symbol>

    <symbol id="shopping-cart"  viewBox="0 0 261 228">
        <g>
            <path d="M46.404,0.878 C49.82,0.878 52.804,3.185 53.663,6.491 L53.663,6.491 L61.996,38.546 L252.796,38.546 C255.118,38.546 257.31,39.622 258.73,41.459 L258.73,41.459 C260.154,43.3 260.644,45.692 260.044,47.935 L260.044,47.935 L230.659,160.905 C229.8,164.21 226.816,166.517 223.401,166.517 L223.401,166.517 L85.581,166.517 C82.166,166.517 79.182,164.21 78.323,160.905 L78.323,160.905 L48.942,47.935 C48.941,47.934 48.941,47.934 48.941,47.933 L48.941,47.933 L40.608,15.878 L7.496,15.878 C3.354,15.878 -0.004,12.52 -0.004,8.378 C-0.004,4.236 3.354,0.878 7.496,0.878 L7.496,0.878 Z M247.801855,50.1544111 L65.0229073,50.1544111 L90,155.036593 L219,155.036593 L247.801855,50.1544111 Z" id="Shape"/>
            <path d="M105.48,172.62 C90.374,172.62 78.084,184.91 78.084,200.015 C78.084,215.123 90.374,227.415 105.48,227.415 C120.585,227.415 132.875,215.123 132.875,200.015 C132.875,184.905 120.585,172.615 105.475,172.615 L105.48,172.62 Z M105.500625,216 C96.9537735,216 90,209.044848 90,200.496874 C90,191.951401 96.9537735,185 105.500625,185 C114.046226,185 121,191.952652 121,200.496874 C121,209.036096 114.047477,216 105.494373,216 L105.500625,216 Z" id="Shape"/>
            <path d="M203.51,172.62 C188.406,172.62 176.118,184.91 176.118,200.015 C176.118,215.123 188.406,227.415 203.51,227.415 C218.617,227.415 230.906,215.123 230.906,200.015 C230.906,184.905 218.616,172.615 203.506,172.615 L203.51,172.62 Z M203.497499,216 C194.952114,216 188,209.044848 188,200.496874 C188,191.951401 194.952114,185 203.497499,185 C212.046635,185 219,191.952652 219,200.496874 C219,209.036096 212.046635,216 203.492496,216 L203.497499,216 Z" id="Shape"/>
        </g>
    </symbol>

    <symbol id="arrow"  viewBox="0 0 240.823 240.823">
        <g>
            <path id="Chevron_Right_1_" d="M183.189,111.816L74.892,3.555c-4.752-4.74-12.451-4.74-17.215,0c-4.752,4.74-4.752,12.439,0,17.179
		l99.707,99.671l-99.695,99.671c-4.752,4.74-4.752,12.439,0,17.191c4.752,4.74,12.463,4.74,17.215,0l108.297-108.261
		C187.881,124.315,187.881,116.495,183.189,111.816z"/>
        </g>
    </symbol>

    <symbol id="avatar"  viewBox="0 0 482.9 482.9">
        <g>
            <path d="M239.7,260.2c0.5,0,1,0,1.6,0c0.2,0,0.4,0,0.6,0c0.3,0,0.7,0,1,0c29.3-0.5,53-10.8,70.5-30.5
			c38.5-43.4,32.1-117.8,31.4-124.9c-2.5-53.3-27.7-78.8-48.5-90.7C280.8,5.2,262.7,0.4,242.5,0h-0.7c-0.1,0-0.3,0-0.4,0h-0.6
			c-11.1,0-32.9,1.8-53.8,13.7c-21,11.9-46.6,37.4-49.1,91.1c-0.7,7.1-7.1,81.5,31.4,124.9C186.7,249.4,210.4,259.7,239.7,260.2z
			 M164.6,107.3c0-0.3,0.1-0.6,0.1-0.8c3.3-71.7,54.2-79.4,76-79.4h0.4c0.2,0,0.5,0,0.8,0c27,0.6,72.9,11.6,76,79.4
			c0,0.3,0,0.6,0.1,0.8c0.1,0.7,7.1,68.7-24.7,104.5c-12.6,14.2-29.4,21.2-51.5,21.4c-0.2,0-0.3,0-0.5,0l0,0c-0.2,0-0.3,0-0.5,0
			c-22-0.2-38.9-7.2-51.4-21.4C157.7,176.2,164.5,107.9,164.6,107.3z"/>
            <path d="M446.8,383.6c0-0.1,0-0.2,0-0.3c0-0.8-0.1-1.6-0.1-2.5c-0.6-19.8-1.9-66.1-45.3-80.9c-0.3-0.1-0.7-0.2-1-0.3
			c-45.1-11.5-82.6-37.5-83-37.8c-6.1-4.3-14.5-2.8-18.8,3.3c-4.3,6.1-2.8,14.5,3.3,18.8c1.7,1.2,41.5,28.9,91.3,41.7
			c23.3,8.3,25.9,33.2,26.6,56c0,0.9,0,1.7,0.1,2.5c0.1,9-0.5,22.9-2.1,30.9c-16.2,9.2-79.7,41-176.3,41
			c-96.2,0-160.1-31.9-176.4-41.1c-1.6-8-2.3-21.9-2.1-30.9c0-0.8,0.1-1.6,0.1-2.5c0.7-22.8,3.3-47.7,26.6-56
			c49.8-12.8,89.6-40.6,91.3-41.7c6.1-4.3,7.6-12.7,3.3-18.8c-4.3-6.1-12.7-7.6-18.8-3.3c-0.4,0.3-37.7,26.3-83,37.8
			c-0.4,0.1-0.7,0.2-1,0.3c-43.4,14.9-44.7,61.2-45.3,80.9c0,0.9,0,1.7-0.1,2.5c0,0.1,0,0.2,0,0.3c-0.1,5.2-0.2,31.9,5.1,45.3
			c1,2.6,2.8,4.8,5.2,6.3c3,2,74.9,47.8,195.2,47.8s192.2-45.9,195.2-47.8c2.3-1.5,4.2-3.7,5.2-6.3
			C447,415.5,446.9,388.8,446.8,383.6z"/>
        </g>
    </symbol>

    <symbol id="clock"  viewBox="0 0 443.294 443.294">
        <g>
            <path d="m221.647 0c-122.214 0-221.647 99.433-221.647 221.647s99.433 221.647 221.647
            221.647 221.647-99.433 221.647-221.647-99.433-221.647-221.647-221.647zm0 415.588c-106.941
            0-193.941-87-193.941-193.941s87-193.941 193.941-193.941 193.941 87 193.941 193.941-87
            193.941-193.941 193.941z"/>
            <path d="m235.5 83.118h-27.706v144.265l87.176 87.176 19.589-19.589-79.059-79.059z"/>
        </g>
    </symbol>

    <symbol id="navigation"  viewBox="0 0 51.636 51.636">
        <g>
            <path d="M51.353,0.914c-0.295-0.305-0.75-0.39-1.135-0.213L0.583,23.481c-0.399,0.184-0.632,0.605-0.574,1.041
	s0.393,0.782,0.826,0.854l22.263,3.731l2.545,21.038c0.054,0.438,0.389,0.791,0.824,0.865c0.057,0.01,0.113,0.015,0.169,0.015
	c0.375,0,0.726-0.211,0.896-0.556l24-48.415C51.72,1.675,51.648,1.218,51.353,0.914z"/>
        </g>
    </symbol>

    <symbol id="gps"  viewBox="0 0 477 477">
        <g>
            <path d="M238.4,0C133,0,47.2,85.8,47.2,191.2c0,12,1.1,24.1,3.4,35.9c0.1,0.7,0.5,2.8,1.3,6.4c2.9,12.9,7.2,25.6,12.8,37.7
			c20.6,48.5,65.9,123,165.3,202.8c2.5,2,5.5,3,8.5,3s6-1,8.5-3c99.3-79.8,144.7-154.3,165.3-202.8c5.6-12.1,9.9-24.7,12.8-37.7
			c0.8-3.6,1.2-5.7,1.3-6.4c2.2-11.8,3.4-23.9,3.4-35.9C429.6,85.8,343.8,0,238.4,0z M399.6,222.4c0,0.2-0.1,0.4-0.1,0.6
			c-0.1,0.5-0.4,2-0.9,4.3c0,0.1,0,0.1,0,0.2c-2.5,11.2-6.2,22.1-11.1,32.6c-0.1,0.1-0.1,0.3-0.2,0.4
			c-18.7,44.3-59.7,111.9-148.9,185.6c-89.2-73.7-130.2-141.3-148.9-185.6c-0.1-0.1-0.1-0.3-0.2-0.4c-4.8-10.4-8.5-21.4-11.1-32.6
			c0-0.1,0-0.1,0-0.2c-0.6-2.3-0.8-3.8-0.9-4.3c0-0.2-0.1-0.4-0.1-0.7c-2-10.3-3-20.7-3-31.2c0-90.5,73.7-164.2,164.2-164.2
			s164.2,73.7,164.2,164.2C402.6,201.7,401.6,212.2,399.6,222.4z"/>
            <path d="M238.4,71.9c-66.9,0-121.4,54.5-121.4,121.4s54.5,121.4,121.4,121.4s121.4-54.5,121.4-121.4S305.3,71.9,238.4,71.9z
			 M238.4,287.7c-52.1,0-94.4-42.4-94.4-94.4s42.4-94.4,94.4-94.4s94.4,42.4,94.4,94.4S290.5,287.7,238.4,287.7z"/>
        </g>
    </symbol>

    <symbol id="flag"  viewBox="-92 0 482 482.2021">
        <g>
            <path d="m292.902344 93.402344-30.5-16.601563c-31.015625-16.785156-68.957032-14.015625-97.203125
            7.101563-22.003907 16.425781-51.550781 18.574218-75.699219 5.5l-25.300781-13.800782v-12c15.761719-5.410156
            24.929687-21.808593 21.28125-38.070312-3.644531-16.257812-18.9375-27.167969-35.5-25.332031-16.558594
            1.839843-29.085938 15.839843-29.078125 32.5.167968 14.324219 9.53125 26.914062 23.199218
            31.203125v361.296875h-23.5c-11.199218 0-20.5 8.703125-20.5 19.902343v27.300782c.128907 5.511718 4.683594
            9.890625 10.199219 9.796875h87.5c5.515625.09375 10.074219-4.285157
            10.199219-9.796875v-27.300782c0-11.199218-9.300781-19.902343-20.5-19.902343h-23.300781v-179.5l15.703125
            8.5c31.011718 16.785156 68.953125 14.011719 97.199218-7.097657 21.96875-16.425781 51.484376-18.574218
            75.597657-5.5l30.5 16.597657c3.128906 1.683593 6.910156 1.613281 9.976562-.183594 3.0625-1.796875
            4.96875-5.0625 5.023438-8.613281v-147.203125c-.015625-3.683594-2.050781-7.0625-5.296875-8.796875zm-204.703125
            351.699218v17.097657h-68v-17.097657c0-.199218.402343.097657.5.097657h66.902343c.199219
            0 .597657-.296875.597657-.097657zm-34.5-425.101562c7.015625 0 12.703125 5.6875 12.703125 12.699219
            0 7.015625-5.6875 12.703125-12.703125 12.703125-7.011719 0-12.699219-5.6875-12.699219-12.703125.011719-7.007813
            5.691406-12.6875 12.699219-12.699219zm224.5 212.601562-15.796875-8.5c-31.050782-16.785156-69.019532-14.011718-97.300782
            7.097657-22.007812 16.429687-51.550781 18.578125-75.699218 5.5l-25.203125-13.796875v-124.5l15.703125
            8.5c31.011718 16.785156 68.953125 14.015625 97.199218-7.101563 22.042969-16.429687 51.617188-18.574219
            75.800782-5.5l25.398437 13.699219v124.601562zm0 0"/>
        </g>
    </symbol>

    <symbol id="share"  viewBox="0 0 481.6 481.6">
        <g>
            <path d="M381.6,309.4c-27.7,0-52.4,13.2-68.2,33.6l-132.3-73.9c3.1-8.9,4.8-18.5,4.8-28.4c0-10-1.7-19.5-4.9-28.5l132.2-73.8
		c15.7,20.5,40.5,33.8,68.3,33.8c47.4,0,86.1-38.6,86.1-86.1S429,0,381.5,0s-86.1,38.6-86.1,86.1c0,10,1.7,19.6,4.9,28.5
		l-132.1,73.8c-15.7-20.6-40.5-33.8-68.3-33.8c-47.4,0-86.1,38.6-86.1,86.1s38.7,86.1,86.2,86.1c27.8,0,52.6-13.3,68.4-33.9
		l132.2,73.9c-3.2,9-5,18.7-5,28.7c0,47.4,38.6,86.1,86.1,86.1s86.1-38.6,86.1-86.1S429.1,309.4,381.6,309.4z M381.6,27.1
		c32.6,0,59.1,26.5,59.1,59.1s-26.5,59.1-59.1,59.1s-59.1-26.5-59.1-59.1S349.1,27.1,381.6,27.1z M100,299.8
		c-32.6,0-59.1-26.5-59.1-59.1s26.5-59.1,59.1-59.1s59.1,26.5,59.1,59.1S132.5,299.8,100,299.8z M381.6,454.5
		c-32.6,0-59.1-26.5-59.1-59.1c0-32.6,26.5-59.1,59.1-59.1s59.1,26.5,59.1,59.1C440.7,428,414.2,454.5,381.6,454.5z"/>
        </g>
    </symbol>

    <symbol id="refresh"  viewBox="0 0 458.186 458.186">
        <g>
            <path d="M445.651,201.95c-1.485-9.308-10.235-15.649-19.543-14.164c-9.308,1.485-15.649,10.235-14.164,19.543
			c0.016,0.102,0.033,0.203,0.051,0.304c17.38,102.311-51.47,199.339-153.781,216.719c-102.311,17.38-199.339-51.47-216.719-153.781
			S92.966,71.232,195.276,53.852c62.919-10.688,126.962,11.29,170.059,58.361l-75.605,25.19
			c-8.944,2.976-13.781,12.638-10.806,21.582c0.001,0.002,0.002,0.005,0.003,0.007c2.976,8.944,12.638,13.781,21.582,10.806
			c0.003-0.001,0.005-0.002,0.007-0.002l102.4-34.133c6.972-2.322,11.675-8.847,11.674-16.196v-102.4
			C414.59,7.641,406.949,0,397.523,0s-17.067,7.641-17.067,17.067v62.344C292.564-4.185,153.545-0.702,69.949,87.19
			s-80.114,226.911,7.779,310.508s226.911,80.114,310.508-7.779C435.905,339.799,457.179,270.152,445.651,201.95z"/>
        </g>
    </symbol>

    <symbol id="check"  viewBox="0 0 24 24">
        <g>
            <path d="M 19.28125 5.28125 L 9 15.5625 L 4.71875 11.28125 L 3.28125 12.71875 L 8.28125 17.71875 L 9
            18.40625 L 9.71875 17.71875 L 20.71875 6.71875 Z"/>
        </g>
    </symbol>

</svg>
