<svg width="10" height="14" viewBox="0 0 10 14" fill="none" xmlns="http://www.w3.org/2000/svg">
<path d="M5 0C2.22222 0 0 2.22222 0 5C0 6.04167 0.277778 7.01389 0.833333 7.77778C1.73611 9.09722 5 10.9028 5 13.8889C5 10.9028 8.26389 9.16667 9.16667 7.77778C9.72222 7.01389 10 6.04167 10 5C10 2.22222 7.77778 0 5 0V0ZM5 7.08333C3.81944 7.08333 2.91667 6.11111 2.91667 5C2.91667 3.88889 3.88889 2.91667 5 2.91667C6.11111 2.91667 7.08333 3.88889 7.08333 5C7.08333 6.11111 6.18056 7.08333 5 7.08333Z" fill="#999999"/>
</svg>
