<svg width="30" height="30" viewBox="0 0 30 30" fill="none" xmlns="http://www.w3.org/2000/svg">
<path d="M29.5 15C29.5 23.0081 23.0081 29.5 15 29.5C6.99187 29.5 0.5 23.0081 0.5 15C0.5 6.99187 6.99187 0.5 15 0.5C23.0081 0.5 29.5 6.99187 29.5 15Z" stroke="#B4966E"/>
<path d="M13.6 15.5999C14.3 14.0999 14.6 13.1999 14.8 12.8999C14.9 12.4999 14.9 12.2999 14.5 12.2999C14.1 12.2999 13.5 12.8999 12.6 14.0999C12.5 14.1999 12.4 14.2999 12.3 14.1999L12.1 13.9999C12 13.8999 12 13.7999 12.1 13.6999C12.7 12.7999 13.3 12.0999 14 11.5999C14.7 10.9999 15.3 10.7999 15.9 10.7999C16.2 10.7999 16.4 10.8999 16.5 11.0999C16.6 11.2999 16.7 11.5999 16.7 11.8999C16.7 12.3999 16.6 12.8999 16.4 13.4999C16.3 13.8999 15.9 14.7999 15.2 16.2999C14.5 17.7999 14.1 18.7999 13.9 19.2999C13.8 19.6999 13.9 19.8999 14.2 19.8999C14.4 19.8999 14.7 19.6999 15.1 19.2999C15.5 18.8999 15.8 18.4999 16.1 18.1999C16.2 18.0999 16.3 17.9999 16.4 18.0999L16.6 18.1999C16.7 18.2999 16.7 18.3999 16.6 18.4999C16 19.3999 15.4 20.0999 14.7 20.5999C14 21.1999 13.4 21.4999 12.8 21.4999C12.5 21.4999 12.3 21.3999 12.2 21.1999C12.1 20.9999 12 20.6999 12 20.3999C12 19.9999 12.1 19.4999 12.4 18.6999C12.6 18.0999 13 17.0999 13.6 15.5999ZM15.8 8.5999C15.5 8.2999 15.4 7.9999 15.4 7.6999C15.4 7.2999 15.5 6.9999 15.8 6.7999C16.1 6.5999 16.4 6.3999 16.7 6.3999C17 6.3999 17.3 6.4999 17.6 6.7999C17.9 7.0999 18 7.3999 18 7.6999C18 7.9999 17.9 8.2999 17.6 8.5999C17.3 8.8999 17 8.9999 16.7 8.9999C16.4 8.9999 16.1 8.8999 15.8 8.5999Z" fill="#B4966E"/>
</svg>
