<svg width="63" height="50" viewBox="0 0 63 50" fill="none" xmlns="http://www.w3.org/2000/svg">
<path d="M45.9559 23.8683C43.9134 23.1824 42.0071 21.9479 40.2369 20.1646C38.3306 18.5185 37.3775 15.9122 37.3775 12.3457C37.3775 8.77915 38.6029 5.82991 41.0539 3.49794C43.5049 1.16598 46.5005 -2.88184e-06 50.0409 -2.57233e-06C53.445 -2.27473e-06 56.3726 1.0974 58.8235 3.29219C61.2745 5.62415 62.5 8.71056 62.5 12.5514C62.5 15.5693 62.0234 18.2442 61.0703 20.5761C59.9809 22.9081 58.8235 25.2401 57.598 27.572L45.1389 50L34.518 50L45.9559 23.8683ZM11.4379 23.8683C9.39543 23.1824 7.48911 21.9479 5.71895 20.1646C3.81264 18.5185 2.85948 15.9122 2.85948 12.3457C2.85948 8.77915 4.08497 5.82991 6.53595 3.49794C8.98693 1.16598 11.9826 -5.89949e-06 15.5229 -5.58999e-06C18.927 -5.29239e-06 21.8546 1.0974 24.3056 3.29219C26.7565 5.62415 27.982 8.71055 27.982 12.5514C27.982 15.5693 27.5055 18.2442 26.5523 20.5761C25.463 22.9081 24.3056 25.2401 23.0801 27.572L10.6209 50L-2.34095e-07 50L11.4379 23.8683Z" fill="#B4966E"/>
</svg>
