<svg width="100" height="100" viewBox="0 0 100 100" fill="none" xmlns="http://www.w3.org/2000/svg">
<circle cx="50" cy="50" r="49.3056" stroke="black" stroke-width="1.38889"/>
<rect x="27.0831" y="56.2499" width="9.72222" height="16.6667" rx="4.86111" stroke="#181716" stroke-width="1.38889"/>
<path d="M63.1944 45.8334C63.1944 43.1487 65.3708 40.9723 68.0556 40.9723C70.7403 40.9723 72.9167 43.1487 72.9167 45.8334V68.0556C72.9167 70.7403 70.7403 72.9167 68.0556 72.9167C65.3708 72.9167 63.1944 70.7403 63.1944 68.0556V45.8334Z" stroke="#181716" stroke-width="1.38889"/>
<path d="M45.1378 54.1666C45.1378 51.4819 47.3142 49.3055 49.9989 49.3055C52.6836 49.3055 54.86 51.4819 54.86 54.1666V68.0555C54.86 70.7402 52.6836 72.9166 49.9989 72.9166C47.3142 72.9166 45.1378 70.7402 45.1378 68.0555V54.1666Z" stroke="#181716" stroke-width="1.38889"/>
<path d="M69.4457 28.253L29.168 50M69.4457 28.253L68.752 34.4664M69.4457 28.253L63.1964 26.3889" stroke="black" stroke-width="1.38889" stroke-linecap="round"/>
</svg>
