<svg width="100" height="100" viewBox="0 0 100 100" fill="none" xmlns="http://www.w3.org/2000/svg">
<circle cx="50" cy="50" r="49.3056" stroke="black" stroke-width="1.38889"/>
<path d="M35.8811 66.6666C35.8811 62.1608 38.3058 58.232 41.8961 56.1686C43.6033 55.1861 45.5749 54.625 47.6754 54.625H52.5314C54.5745 54.625 56.4966 55.1555 58.1726 56.0901C61.8384 58.1323 64.3256 62.1023 64.3256 66.6666" stroke="#181716" stroke-width="1.38889" stroke-linecap="round"/>
<path d="M65.2783 54.6328C65.9728 53.2148 65.9728 53.2148 68.2406 53.2148H72.2774C78.7611 53.2148 84.0364 58.6007 84.0364 65.2204" stroke="#181716" stroke-width="1.38889" stroke-linecap="round"/>
<path d="M34.0364 54.6328C33.3338 53.2148 33.3419 53.2148 31.0741 53.2148H27.0373C20.5536 53.2148 15.2783 58.6007 15.2783 65.2204" stroke="#181716" stroke-width="1.38889" stroke-linecap="round"/>
<path d="M70.7666 34.0281L70.7694 34.028C70.7885 34.0278 70.8084 34.0277 70.8275 34.0277C75.0118 34.0277 78.4359 37.4158 78.4724 41.6073C78.4899 43.6259 77.7287 45.5322 76.3273 46.9811C74.8923 48.4645 72.9679 49.2889 70.9009 49.3051L70.8981 49.3051C70.879 49.3054 70.8593 49.3055 70.8401 49.3055C66.6559 49.3055 63.2317 45.9173 63.1952 41.7259C63.1586 37.5149 66.5556 34.061 70.7666 34.0281ZM70.8401 49.9999C70.862 49.9999 70.8844 49.9998 70.9063 49.9995L70.7612 33.3336C66.1664 33.3696 62.4608 37.1372 62.5008 41.7319C62.5407 46.3048 66.275 49.9999 70.8401 49.9999Z" stroke="#181716" stroke-width="1.38889"/>
<path d="M29.2344 34.0281L29.2316 34.028C29.2125 34.0278 29.1926 34.0277 29.1735 34.0277C24.9892 34.0277 21.5651 37.4158 21.5286 41.6073C21.5111 43.6259 22.2722 45.5322 23.6737 46.9811C25.1087 48.4645 27.0331 49.2889 29.1001 49.3051L29.1029 49.3051C29.1219 49.3054 29.1416 49.3055 29.1609 49.3055C33.3451 49.3055 36.7692 45.9173 36.8057 41.7259C36.8424 37.5149 33.4453 34.061 29.2344 34.0281ZM29.1609 49.9999C29.139 49.9999 29.1166 49.9998 29.0947 49.9995L29.2398 33.3336C33.8345 33.3696 37.5401 37.1372 37.5002 41.7319C37.4603 46.3048 33.726 49.9999 29.1609 49.9999Z" stroke="#181716" stroke-width="1.38889"/>
<path d="M46.1429 49.8277L46.1425 49.8276C43.0867 48.3771 40.9728 45.2628 40.9728 41.6672C40.9728 36.6889 45.0228 32.6388 50.0005 32.6388C54.9783 32.6388 59.0283 36.6889 59.0283 41.6672C59.0283 45.2628 56.9144 48.3771 53.8585 49.8276L53.8582 49.8277C52.6884 50.3838 51.3808 50.6943 50.0005 50.6943C48.6203 50.6943 47.3127 50.3838 46.1429 49.8277Z" stroke="#181716" stroke-width="1.38889"/>
</svg>
