<svg width="100" height="100" viewBox="0 0 100 100" fill="none" xmlns="http://www.w3.org/2000/svg">
<circle cx="50" cy="50" r="49.3056" stroke="black" stroke-width="1.38889"/>
<path d="M26.3268 48.1747C31.8363 33.2991 49.2829 33.2532 57.3175 35.0897C60.7611 28.8916 69.3693 25.7925 67.6476 27.8585C66.2703 29.5114 65.6964 34.5158 65.5816 36.8114C71.081 38.1208 74.5266 44.7204 75.7408 48.327C75.8521 48.6577 76.1239 48.9088 76.4651 48.9819L79.9764 49.7343C80.4175 49.8289 80.7326 50.2187 80.7326 50.6698V59.0883C80.7326 59.5487 80.4047 59.9438 79.9522 60.0286L75.8703 60.794C75.4806 60.8671 75.1832 61.1755 75.048 61.5483C74.0264 64.3644 69.6968 68.1974 67.1253 70.1719C66.818 70.4078 66.6759 70.802 66.7698 71.1778L67.4615 73.9445C67.5703 74.3795 67.3623 74.8316 66.9612 75.0322L60.838 78.0938C60.402 78.3118 59.8718 78.1671 59.607 77.7578L56.7183 73.2935C56.467 72.9052 55.9757 72.7565 55.5317 72.8857C52.3587 73.8089 47.3096 73.2589 44.5375 72.7498C44.145 72.6777 43.7468 72.8465 43.5337 73.184L40.2389 78.4008C39.9679 78.8299 39.4091 78.9727 38.9655 78.7262L31.2029 74.4137C30.7786 74.178 30.5981 73.6619 30.7829 73.2132L32.5491 68.9241C32.7322 68.4794 32.5539 67.9711 32.1534 67.7048C25.1658 63.0581 25.3268 52.8414 26.3268 48.1747ZM26.3268 48.1747C23.1129 47.0269 17.9247 43.3539 22.8833 37.8444M33.5579 33.0237C33.0988 29.4655 33.9023 22.0736 40.7891 20.9717C47.6759 19.8698 50.5454 25.5629 51.1193 28.5472" stroke="#181716" stroke-width="1.38889" stroke-linecap="round"/>
<circle cx="69.0436" cy="48.5193" r="2.06605" fill="#181716"/>
</svg>
