<svg width="100" height="100" viewBox="0 0 100 100" fill="none" xmlns="http://www.w3.org/2000/svg">
<path d="M42.1893 31.4566C42.878 26.6357 53.926 25.1435 59.3783 25C64.8305 25.1435 75.907 26.6357 76.5958 31.4566M42.1893 31.4566C42.1505 31.7282 42.1516 31.9893 42.1893 32.2402M42.1893 31.4566V32.2402M42.1893 32.2402C42.8208 36.4414 53.7203 37.7778 59.4069 37.9132C65.0936 37.7778 75.9643 36.4414 76.5958 32.2402M42.1893 32.2402V38.3436C44.9442 42.8202 54.806 43.9394 59.4069 43.9394C64.0079 43.9394 73.8409 42.8202 76.5958 38.3436V32.2402M76.5958 31.4566C76.6346 31.7282 76.6335 31.9893 76.5958 32.2402M76.5958 31.4566V32.2402M42.1851 43.8619C42.8166 48.0631 53.716 49.3995 59.4027 49.5349C65.0893 49.3995 75.96 48.0631 76.5915 43.8619M42.1851 43.8619V49.9654C44.9399 54.442 54.8017 55.5611 59.4027 55.5611C64.0036 55.5611 73.8367 54.442 76.5915 49.9654V43.8619M42.1851 43.8619V36.1913M76.5915 43.8619V36.1913M42.1851 55.9143C42.8166 60.1155 53.716 61.4519 59.4027 61.5873C65.0893 61.4519 75.96 60.1155 76.5915 55.9143M42.1851 55.9143V62.0178C44.9399 66.4943 54.8017 67.6135 59.4027 67.6135C64.0036 67.6135 73.8367 66.4943 76.5915 62.0178V55.9143M42.1851 55.9143V48.2437M76.5915 55.9143V48.2437" stroke="#181716" stroke-width="1.38889" stroke-linecap="round"/>
<circle cx="37.4996" cy="56.9457" r="17.3611" fill="white" stroke="#181716" stroke-width="1.38889"/>
<path d="M35.4368 51.3193H35.3674V51.3888V57.585H33.3335H33.2641V57.6545V58.4377V58.5071H33.3335H35.3674V60.3837H33.3335H33.2641V60.4531V61.2363V61.3058H33.3335H35.3674V63.8888V63.9582H35.4368H36.2759H36.3453V63.8888V61.2744H40.4713H40.5408V61.205V60.4218V60.3523H40.4713H36.3453V58.4758H39.2966C40.3105 58.4758 41.2838 58.0999 42.0021 57.4294C42.7206 56.7588 43.1252 55.8482 43.1252 54.8976C43.1252 53.947 42.7206 53.0363 42.0021 52.3657C41.2838 51.6953 40.3105 51.3193 39.2966 51.3193H35.4368ZM36.3453 52.2101H39.2966C40.0541 52.2101 40.7797 52.491 41.314 52.9897C41.8481 53.4883 42.1472 54.1634 42.1472 54.8662C42.1472 55.5691 41.8481 56.2442 41.314 56.7427C40.7797 57.2414 40.0541 57.5224 39.2966 57.5224H36.3453V52.2101Z" fill="#181716" stroke="black" stroke-width="0.138889"/>
<circle cx="50" cy="50" r="49.3056" stroke="black" stroke-width="1.38889"/>
</svg>
