<svg width="98" height="121" viewBox="0 0 98 121" fill="none" xmlns="http://www.w3.org/2000/svg">
<path d="M19.385 42.116C22.8066 35.5629 26.6947 29.2641 31.0194 23.2684C38.4266 12.4291 38.1357 26.6424 35.7895 32.0523C34.6066 34.4374 33.9861 34.7476 33.8504 33.0219C37.4958 27.2047 39.0277 32.9249 38.7368 36.454C37.8255 47.5648 34.277 58.5399 30.8255 69.1077C26.2493 83.1465 22.1579 98.3681 12.9861 110.371C10.4874 114.081 7.11892 117.123 3.17451 119.232C-1.38227 121.288 2.43767 103.119 2.08864 104.302C3.45499 100.139 5.0938 96.0714 6.99446 92.1243C13.5113 77.5114 21.565 63.6336 31.0194 50.7255C35.072 45.1604 38.2521 39.0911 42.072 33.2739C44.2632 29.9969 52.6787 17.2379 52.5235 28.8529C52.4072 38.044 48.0637 47.2739 44.4571 55.6313C46.3961 51.2878 50.1385 44.8113 52.446 39.4595C55.2909 32.0026 59.1751 24.9849 63.9834 18.6147C62.626 20.2629 61.2493 28.3099 60.1053 30.8113C58.2825 34.6894 56.2271 38.3931 54.4044 42.2324C54.2105 42.5814 55.0831 44.0357 54.9474 44.1714C58.6897 40.5066 62.5485 36.9775 66.1745 33.1964C67.8214 31.2698 69.3558 29.2498 70.7701 27.1465C70.7701 27.2435 79.1468 18.1687 77.4792 23.0357C75.5402 28.5232 70.3241 33.972 67.1828 38.7615C62.626 45.6645 58.1662 52.587 53.3186 59.2573C53.0859 59.5676 53.9778 61.1964 53.8809 61.1964C65.5346 52.3543 71.4487 36.8418 80.2327 25.4014C81.8428 23.2293 83.9777 21.5013 86.4377 20.3792C88.2604 19.5066 82.7728 29.7836 82.4044 30.2878C78.0997 36.105 72.554 41.2822 69.8005 48.0496C69.8005 48.2629 70.169 49.9886 70.3629 49.9886C76.4127 49.9886 81.1246 45.3349 86.0111 42.2324C91.8282 38.5094 90.3546 42.6202 87.6787 45.3737C85.0028 48.1271 81.7258 50.8224 78.7396 53.4983C72.668 59.2524 66.9258 65.3442 61.5402 71.7448C56.1302 77.8141 54.5402 85.0468 51.205 92.1243C50.9529 92.6479 51.9224 93.6562 51.7479 94.0634C57.1967 82.6036 61.4432 74.2656 70.4017 64.7642C76.7812 58.1714 92.2936 48.2629 92.7784 38.7809C92.6685 38.1122 92.473 37.4605 92.1967 36.8418C88.7164 38.4004 85.3699 40.2423 82.1911 42.3487C81.7645 42.6202 70.5568 49.5232 71.6039 46.9249C74.3573 40.1188 81.9778 33.8169 86.205 27.5343C88.3961 24.3543 89.7535 21.8529 87.8532 18.6147C85.0415 13.8446 62.6454 49.2906 61.2687 51.2684C61.2687 51.1521 55.9751 58.249 56.8282 57.0856C60.7064 51.7919 64.1773 46.1493 67.7258 40.6424C71.8559 34.2629 79.0305 27.3404 79.0111 19.4485C78.8714 18.7871 78.6768 18.1385 78.4294 17.5094C69.9363 22.4928 64.4294 32.5759 57.2161 39.3044C60.1053 36.8418 64.8172 23.8113 66.446 16.7726C66.3012 16.1146 66.1134 15.4668 65.8836 14.8335C58.5734 20.3016 55.3546 29.6285 51.8449 37.5786C48.8005 44.4817 41.9363 52.3543 42.6537 59.8778C42.6537 60.2656 43.3324 61.526 43.2161 61.8169C48.374 50.3376 55.9751 35.8529 52.349 23.0357C52.349 22.9 52.1745 22.1244 52 22.0856C45.8726 20.6119 37.4958 37.9083 35.2465 41.7476C28.7119 52.9748 20.3933 62.8834 14.3241 74.4401C7.75069 86.695 -3.26316 103.293 0.925206 117.856C4.4349 130.072 21.3241 98.8917 22.5457 96.2158C30.8643 77.0579 43.0415 48.6119 38.8726 27.5731C38.8726 27.418 38.3296 25.9249 38.3296 25.9249C35.6537 28.213 32.1634 30.7919 32.144 34.4762C32.2293 35.1479 32.419 35.8021 32.7064 36.4152C41.7424 34.069 41.9751 -7.31054 18.8227 40.2933C18.5706 40.7975 19.5596 41.8446 19.3656 42.2324" fill="#B4966E"/>
<path d="M66.1547 39.169C65.5342 27.5346 61.5785 15.7258 58.127 4.65374C58.3209 5.25485 57.9912 6.03047 58.127 6.5928C59.7946 14.1357 67.4926 15.3767 74.4344 14.349C78.7392 13.7285 82.753 11.2465 86.4566 9.22992C90.1602 7.2133 95.3181 5.81717 97.9358 1.93906C98.1879 1.55125 97.5868 0.213296 97.9358 0C93.8444 3.41274 91.4594 8.91967 88.8417 13.3795C85.8409 18.6236 82.1279 23.4264 77.8084 27.651C77.44 27.9806 78.1381 29.3186 77.8084 29.59C82.0533 25.3068 85.7586 20.5206 88.8417 15.3379C91.6533 10.8781 93.7669 5.40997 97.9358 1.93906V0C95.7253 3.21884 92.1187 4.42105 88.7059 6.10803C84.6387 8.42751 80.399 10.4307 76.0245 12.0997C68.9663 14.2715 59.8333 12.3518 58.1658 4.65374V6.5928C61.6173 17.626 65.573 29.4931 66.1935 41.0499C66.1935 40.5845 66.1935 39.7119 66.1935 39.1108" fill="#B4966E"/>
</svg>
