<?xml version="1.0" encoding="UTF-8"?>
<svg width="64px" height="64px" viewBox="0 0 64 64" version="1.1" xmlns="http://www.w3.org/2000/svg" xmlns:xlink="http://www.w3.org/1999/xlink">
    <!-- Generator: Sketch 60 (88103) - https://sketch.com -->
    <title>Group 2</title>
    <desc>Created with Sketch.</desc>
    <g id="Page-1" stroke="none" stroke-width="1" fill="none" fill-rule="evenodd">
        <g id="Group-2">
            <g id="Path-2" fill="#000000" fill-rule="nonzero">
                <path d="M32,64 C14.4,64 0,49.6 0,32 C0,14.4 14.4,0 32,0 C49.6,0 64,14.4 64,32 C64,49.6 49.6,64 32,64 Z" id="Path"></path>
            </g>
            <g id="Group" transform="translate(16.000000, 17.000000)">
                <path d="M4.9,-3.55271368e-15 L27.2,-3.55271368e-15 C29.3,-3.55271368e-15 31.1,1.7 31.1,3.9 L31.1,26.2 C31.1,28.3 29.4,30.1 27.2,30.1 L4.9,30.1 C2.8,30.1 1,28.4 1,26.2 L1,3.9 C1,1.7 2.7,-3.55271368e-15 4.9,-3.55271368e-15 L4.9,-3.55271368e-15 Z" id="Path" fill="#FFFFFF" fill-rule="nonzero"></path>
                <line x1="0" y1="11" x2="32" y2="11" id="Line" stroke="#000000" stroke-width="2" stroke-linecap="square"></line>
                <path d="M23.6290323,2.3 C23.0645161,2.3 22.5,2.8 22.5,3.46666667 L22.5,6.13333333 C22.5,6.71666667 22.983871,7.3 23.6290323,7.3 L26.3709677,7.3 C26.9354839,7.3 27.5,6.8 27.5,6.13333333 L27.5,3.46666667 C27.5,2.88333333 27.016129,2.3 26.3709677,2.3 L23.6290323,2.3 L23.6290323,2.3 Z" id="Path" fill="#000000" fill-rule="nonzero"></path>
                <path d="M15.9984308,8 C12.1492939,8 9,11.137931 9,15 C9,18.862069 12.1492939,22 15.9984308,22 C19.8475677,22 22.9968616,18.862069 22.9968616,15 C23.1135021,11.137931 19.9642083,8 15.9984308,8 Z" id="Path" fill="#000000" fill-rule="nonzero"></path>
                <path d="M15.9991033,11 C13.7995965,11 12,12.7931034 12,15 C12,17.2068966 13.7995965,19 15.9991033,19 C18.1986101,19 19.9982066,17.2068966 19.9982066,15 C20.0648584,12.7931034 18.2652619,11 15.9991033,11 Z" id="Path" fill="#FFFFFF" fill-rule="nonzero"></path>
            </g>
        </g>
    </g>
</svg>