<?xml version="1.0" encoding="UTF-8"?>
<svg width="64px" height="64px" viewBox="0 0 64 64" version="1.1" xmlns="http://www.w3.org/2000/svg" xmlns:xlink="http://www.w3.org/1999/xlink">
    <!-- Generator: Sketch 60 (88103) - https://sketch.com -->
    <title>Group</title>
    <desc>Created with Sketch.</desc>
    <g id="Page-1" stroke="none" stroke-width="1" fill="none" fill-rule="evenodd">
        <g id="Group" fill-rule="nonzero">
            <path d="M32,64 C14.4,64 0,49.6 0,32 C0,14.4 14.4,0 32,0 C49.6,0 64,14.4 64,32 C64,49.6 49.6,64 32,64 Z" id="Path" fill="#000000"></path>
            <path d="M48,22.1 C46.8,22.6 45.6,23 44.2,23.1 C45.6,22.3 46.6,21 47.1,19.5 C45.8,20.3 44.4,20.8 42.9,21.1 C41.7,19.8 40,19 38.2,19 C34.6,19 31.6,21.9 31.6,25.6 C31.6,26.1 31.7,26.6 31.8,27.1 C26.3,26.8 21.5,24.2 18.3,20.2 C17.7,21.2 17.4,22.3 17.4,23.5 C17.4,25.8 18.6,27.8 20.3,29 C19.2,29 18.2,28.7 17.3,28.2 C17.3,28.2 17.3,28.3 17.3,28.3 C17.3,31.5 19.6,34.1 22.6,34.7 C22,34.8 21.5,34.9 20.9,34.9 C20.5,34.9 20.1,34.9 19.7,34.8 C20.5,37.4 23,39.3 25.8,39.4 C23.6,41.2 20.7,42.2 17.6,42.2 C17.1,42.2 16.5,42.2 16,42.1 C18.9,44 22.4,45 26.1,45 C38.2,45 44.8,35 44.8,26.3 C44.8,26 44.8,25.7 44.8,25.5 C46,24.6 47.1,23.4 48,22.1 Z" id="Path" fill="#FFFFFF"></path>
        </g>
    </g>
</svg>